<?xml version="1.0" standalone="no"?>
<!DOCTYPE svg PUBLIC "-//W3C//DTD SVG 20010904//EN"
 "http://www.w3.org/TR/2001/REC-SVG-20010904/DTD/svg10.dtd">
<svg version="1.0" xmlns="http://www.w3.org/2000/svg"
 width="2000.000000pt" height="443.000000pt" viewBox="0 0 2000.000000 443.000000"
 preserveAspectRatio="xMidYMid meet">

<g transform="translate(0.000000,443.000000) scale(0.100000,-0.100000)"
fill="#000000" stroke="none">
<path d="M5435 3690 c-451 -45 -843 -351 -978 -765 -41 -127 -57 -233 -57
-387 0 -207 33 -350 122 -534 152 -312 478 -545 844 -604 100 -16 394 -17 474
-2 202 40 413 132 548 240 l42 34 0 434 0 434 -115 0 -115 0 0 -384 0 -385
-58 -35 c-141 -86 -283 -124 -488 -133 -250 -10 -437 40 -624 167 -69 47 -166
141 -218 212 -55 75 -118 202 -142 290 -62 221 -39 502 58 693 160 318 495
515 876 515 263 0 474 -74 650 -228 l39 -34 75 76 76 75 -24 27 c-73 79 -252
188 -390 236 -157 55 -393 78 -595 58z"/>
<path d="M7995 3694 c-306 -30 -532 -129 -736 -322 -166 -157 -274 -354 -325
-594 -25 -114 -25 -350 0 -471 57 -284 208 -527 431 -692 139 -103 353 -191
520 -214 294 -41 538 -11 774 93 97 43 213 114 264 161 l27 26 -2 427 -3 427
-112 3 -113 3 0 -380 0 -380 -32 -24 c-205 -154 -604 -202 -903 -108 -217 68
-432 254 -537 466 -151 304 -125 697 65 970 43 61 164 179 232 225 162 109
367 170 575 170 113 0 253 -20 334 -46 84 -27 217 -101 290 -160 l69 -56 68
73 c38 40 69 77 69 82 0 11 -56 61 -134 120 -97 74 -265 147 -411 178 -87 19
-318 32 -410 23z"/>
<path d="M372 2543 l3 -1138 755 0 755 0 0 100 0 100 -637 3 -638 2 0 1035 0
1035 -120 0 -120 0 2 -1137z"/>
<path d="M2956 3643 c-19 -39 -141 -306 -473 -1033 -102 -223 -235 -513 -295
-645 -210 -458 -248 -543 -248 -554 0 -8 36 -11 122 -9 l121 3 67 150 c37 83
95 213 129 290 35 77 68 146 73 153 8 9 144 12 641 10 l631 -3 88 -195 c49
-107 110 -242 137 -300 l48 -105 123 -3 122 -3 -6 24 c-3 14 -46 112 -95 218
-49 107 -173 379 -276 604 -103 226 -200 437 -215 470 -15 33 -112 245 -215
470 -103 226 -196 429 -206 453 l-18 42 -119 0 -118 0 -18 -37z m435 -892
c132 -294 239 -538 239 -542 0 -5 -243 -9 -540 -9 -331 0 -540 4 -540 9 0 12
188 438 511 1156 10 23 21 44 25 48 4 4 21 -23 37 -60 16 -38 137 -308 268
-602z"/>
<path d="M9610 2957 c0 -672 1 -733 19 -833 38 -213 103 -354 220 -477 106
-111 246 -192 397 -232 153 -40 443 -39 599 1 280 73 486 265 573 534 57 177
57 173 57 980 l0 745 -112 3 c-110 3 -113 2 -118 -20 -3 -13 -6 -356 -8 -763
-3 -736 -3 -740 -25 -820 -73 -253 -212 -393 -456 -455 -111 -28 -311 -28
-419 0 -88 23 -176 60 -215 90 -102 79 -169 168 -212 281 -54 146 -53 139 -59
939 l-6 745 -117 3 -118 3 0 -724z"/>
<path d="M12205 3668 c-3 -7 -4 -519 -3 -1138 l3 -1125 805 0 805 0 0 100 0
100 -683 3 -682 2 2 423 3 422 583 3 582 2 0 100 0 100 -585 0 -585 0 0 405 0
405 658 2 657 3 0 100 0 100 -778 3 c-617 2 -779 0 -782 -10z"/>
<path d="M14385 3668 c-3 -7 -4 -519 -3 -1138 l3 -1125 118 -3 117 -3 0 354
c0 261 3 356 12 365 9 9 111 12 400 12 l387 0 259 -362 258 -363 127 -3 c78
-2 127 1 127 7 0 6 -121 180 -270 388 -148 208 -270 380 -270 383 0 3 26 15
58 28 172 70 302 186 377 336 56 114 76 207 76 356 0 144 -19 241 -69 345
-114 235 -331 375 -651 419 -148 21 -1049 24 -1056 4z m1112 -226 c228 -60
373 -198 413 -395 16 -80 14 -240 -5 -310 -50 -192 -182 -316 -402 -379 -75
-22 -92 -23 -478 -23 l-400 0 -3 555 c-1 305 0 561 3 568 4 11 78 13 397 9
363 -3 399 -5 475 -25z"/>
<path d="M16700 1920 l0 -1650 1650 0 1650 0 0 1650 0 1650 -1650 0 -1650 0 0
-1650z m1135 555 c3 -95 29 -227 65 -335 30 -91 99 -263 109 -273 4 -4 45 142
91 325 45 183 86 343 91 356 8 22 12 22 172 22 l164 0 13 -111 c17 -158 52
-320 90 -417 33 -87 108 -209 125 -205 10 3 21 43 125 476 l62 257 169 0 169
0 0 -29 c0 -117 -52 -338 -155 -651 -40 -124 -86 -279 -100 -345 -42 -188 -68
-236 -158 -281 -105 -54 -183 -38 -270 55 -74 79 -128 198 -187 411 -34 123
-40 135 -60 135 -21 0 -29 -16 -80 -171 -32 -95 -75 -204 -96 -244 -63 -120
-169 -220 -234 -220 -34 0 -97 37 -123 72 -46 61 -69 121 -108 277 -21 86 -78
282 -128 436 -102 317 -163 533 -155 546 3 5 94 8 206 7 l200 -3 3 -90z"/>
<path d="M3980 1060 c-11 -11 -20 -27 -20 -35 0 -21 36 -55 58 -55 24 0 52 31
52 57 0 23 -30 53 -53 53 -9 0 -26 -9 -37 -20z"/>
<path d="M11113 1061 c-59 -28 -83 -70 -83 -148 l0 -63 -55 0 -55 0 0 -35 0
-35 55 0 55 0 0 -255 0 -255 35 0 35 0 0 255 0 255 85 0 85 0 0 35 0 35 -85 0
-85 0 0 55 c0 47 4 60 25 81 23 23 33 25 78 22 29 -2 59 -8 68 -12 11 -5 19 1
27 19 10 22 9 27 -14 42 -39 25 -121 27 -171 4z"/>
<path d="M1263 1021 c-200 -73 -299 -283 -233 -492 37 -116 118 -199 238 -241
84 -30 224 -22 309 16 34 15 71 38 82 50 l21 22 -25 24 -25 23 -23 -21 c-75
-71 -233 -90 -337 -41 -100 48 -158 124 -180 235 -29 146 44 288 180 353 104
49 262 30 337 -41 l23 -21 25 23 25 24 -22 23 c-12 13 -47 35 -77 50 -76 36
-237 43 -318 14z"/>
<path d="M3550 910 l0 -60 -50 0 -50 0 0 -35 0 -35 49 0 50 0 3 -202 c3 -226
10 -251 71 -288 40 -25 135 -27 177 -5 32 17 36 26 20 55 -9 17 -13 17 -38 4
-45 -23 -90 -18 -123 15 l-29 29 0 196 0 196 85 0 85 0 0 35 0 35 -85 0 -85 0
0 60 0 60 -40 0 -40 0 0 -60z"/>
<path d="M7810 910 l0 -60 -50 0 -50 0 0 -35 0 -35 49 0 50 0 3 -202 c3 -226
10 -251 71 -288 40 -25 135 -27 177 -5 32 17 36 26 20 55 -9 17 -13 17 -38 4
-45 -23 -90 -18 -123 15 l-29 29 0 196 0 196 85 0 85 0 0 35 0 35 -85 0 -85 0
0 60 0 60 -40 0 -40 0 0 -60z"/>
<path d="M9620 910 l0 -60 -50 0 -50 0 0 -35 0 -35 49 0 50 0 3 -208 c3 -230
7 -243 71 -282 40 -25 135 -27 177 -5 32 17 36 26 20 55 -9 17 -13 17 -38 4
-62 -32 -135 -7 -151 54 -6 20 -11 115 -11 210 l0 172 90 0 90 0 0 35 0 35
-90 0 -90 0 0 60 0 60 -35 0 -35 0 0 -60z"/>
<path d="M1840 560 l0 -290 34 0 34 0 4 183 c3 164 6 186 25 223 27 51 79 85
139 92 44 5 44 5 44 45 l0 40 -41 -7 c-61 -10 -115 -41 -144 -83 l-25 -38 0
63 0 62 -35 0 -35 0 0 -290z"/>
<path d="M2389 834 c-63 -19 -131 -81 -160 -146 -35 -78 -33 -193 4 -264 52
-101 144 -154 268 -154 76 0 134 18 185 56 l35 27 -22 23 -21 22 -45 -28 c-82
-52 -187 -52 -266 1 -47 31 -87 94 -87 137 0 22 0 22 236 22 l237 0 -5 65
c-15 182 -182 294 -359 239z m168 -65 c58 -22 123 -106 123 -160 0 -18 -11
-19 -201 -19 l-202 0 6 36 c15 89 96 154 194 154 28 0 64 -5 80 -11z"/>
<path d="M3007 839 c-43 -10 -137 -56 -137 -67 0 -4 7 -17 15 -29 l15 -22 47
26 c61 35 182 44 232 19 42 -22 71 -71 71 -122 l0 -42 -137 -4 c-123 -3 -143
-6 -180 -28 -47 -26 -83 -85 -83 -137 0 -50 41 -114 90 -140 63 -33 167 -32
237 2 28 14 54 32 57 40 11 29 26 14 26 -25 0 -39 1 -40 36 -40 l36 0 -4 213
c-3 137 -9 223 -17 242 -41 99 -167 146 -304 114z m243 -353 c0 -65 -27 -110
-85 -140 -50 -26 -136 -27 -183 -2 -40 20 -65 73 -56 114 16 66 55 81 207 82
l117 0 0 -54z"/>
<path d="M3980 560 l0 -290 35 0 35 0 0 290 0 290 -35 0 -35 0 0 -290z"/>
<path d="M4171 843 c0 -5 55 -134 123 -288 l122 -280 40 -3 39 -3 47 108 c26
59 83 190 127 291 l80 182 -37 0 -37 0 -105 -241 c-57 -132 -107 -242 -110
-244 -3 -2 -53 106 -111 240 l-104 245 -37 0 c-21 0 -38 -3 -37 -7z"/>
<path d="M4979 836 c-87 -31 -149 -93 -177 -175 -15 -42 -15 -153 -2 -203 17
-61 69 -119 139 -155 54 -28 73 -33 135 -33 84 0 150 20 194 58 32 27 32 27
14 50 l-18 24 -38 -26 c-123 -83 -291 -45 -347 78 -36 80 -49 76 222 76 l241
0 -6 58 c-9 76 -48 154 -99 197 -68 58 -177 80 -258 51z m168 -71 c21 -9 46
-23 56 -33 22 -20 51 -75 61 -114 l6 -28 -205 0 c-231 0 -222 -3 -186 75 46
100 164 143 268 100z"/>
<path d="M5929 836 c-80 -21 -153 -88 -184 -170 -27 -69 -18 -198 18 -259 53
-90 139 -137 252 -137 82 0 144 23 189 69 l37 38 -25 17 c-25 16 -27 15 -71
-18 -105 -81 -258 -47 -319 70 -31 58 -29 174 3 231 34 60 89 95 156 101 78 6
116 -4 162 -42 l40 -35 28 19 29 19 -42 40 c-67 64 -168 85 -273 57z"/>
<path d="M6545 840 c-56 -14 -84 -29 -125 -66 -61 -56 -83 -104 -88 -202 -4
-77 -3 -87 28 -148 54 -110 145 -160 278 -152 122 6 221 83 252 195 18 61 8
178 -18 229 -58 113 -201 177 -327 144z m193 -94 c59 -41 87 -102 87 -191 -1
-86 -27 -142 -86 -185 -101 -73 -254 -38 -310 71 -45 90 -30 215 33 276 55 53
85 64 164 61 59 -3 78 -8 112 -32z"/>
<path d="M7060 560 l0 -290 40 0 40 0 0 183 c0 208 9 243 75 293 32 24 49 29
109 32 91 4 132 -15 164 -78 21 -41 22 -57 22 -237 l0 -193 41 0 42 0 -5 203
c-5 223 -12 254 -71 315 -82 84 -262 78 -346 -12 -14 -14 -28 -26 -33 -26 -4
0 -8 23 -8 50 l0 50 -35 0 -35 0 0 -290z"/>
<path d="M8349 834 c-63 -19 -131 -81 -160 -146 -35 -78 -33 -193 4 -264 52
-101 144 -154 268 -154 76 0 134 18 185 56 l35 27 -22 23 -21 22 -45 -28 c-82
-52 -187 -52 -266 1 -47 31 -87 94 -87 137 0 22 0 22 236 22 l237 0 -5 65
c-15 182 -182 294 -359 239z m168 -65 c58 -22 123 -106 123 -160 0 -18 -11
-19 -201 -19 l-202 0 6 36 c15 89 96 154 194 154 28 0 64 -5 80 -11z"/>
<path d="M8870 560 l0 -290 40 0 40 0 0 183 c0 208 9 243 75 293 32 24 49 29
109 32 91 4 132 -15 164 -78 21 -41 22 -57 22 -237 l0 -193 41 0 42 0 -5 203
c-5 223 -12 254 -71 315 -82 84 -262 78 -346 -12 -14 -14 -28 -26 -33 -26 -4
0 -8 23 -8 50 l0 50 -35 0 -35 0 0 -290z"/>
<path d="M10462 832 c-67 -24 -133 -88 -163 -155 -31 -74 -25 -204 14 -269 54
-93 139 -138 258 -138 124 0 237 83 269 198 15 54 12 142 -6 195 -20 60 -82
129 -140 156 -67 32 -164 37 -232 13z m194 -68 c109 -52 151 -193 95 -320 -50
-112 -211 -148 -313 -71 -61 47 -83 96 -83 188 0 67 4 81 30 124 40 64 97 95
178 95 34 0 74 -7 93 -16z"/>
<path d="M11762 835 c-102 -29 -134 -55 -113 -94 11 -20 12 -20 63 7 68 35
177 43 233 16 42 -19 74 -77 75 -130 l0 -32 -137 -4 c-112 -3 -146 -7 -178
-23 -56 -28 -85 -75 -85 -140 0 -103 76 -165 202 -165 77 0 129 18 171 57 l27
27 0 -42 c0 -41 1 -42 35 -42 l35 0 0 208 c-1 215 -8 261 -47 304 -51 57 -180
81 -281 53z m258 -344 c0 -78 -55 -143 -139 -162 -128 -29 -225 55 -180 155
20 44 62 56 197 56 l122 0 0 -49z"/>
<path d="M12590 560 l0 -290 34 0 34 0 4 188 c3 178 4 189 28 232 34 61 87 90
165 90 76 0 119 -24 145 -83 17 -37 20 -66 20 -234 l0 -193 34 0 34 0 4 183
c3 165 6 186 27 230 32 65 86 97 168 97 46 0 68 -5 94 -23 63 -42 69 -68 69
-289 l0 -198 40 0 40 0 0 174 c0 197 -10 264 -45 318 -72 109 -268 116 -370
13 l-44 -43 -23 33 c-38 57 -91 80 -178 80 -83 0 -122 -15 -177 -68 l-33 -31
0 52 0 52 -35 0 -35 0 0 -290z"/>
<path d="M13847 839 c-43 -10 -137 -56 -137 -67 0 -4 7 -17 15 -29 l15 -22 47
26 c61 35 182 44 232 19 42 -22 71 -71 71 -122 l0 -42 -137 -4 c-123 -3 -143
-6 -180 -28 -47 -26 -83 -85 -83 -137 0 -50 41 -114 90 -140 63 -33 167 -32
237 2 28 14 54 32 57 40 11 29 26 14 26 -25 0 -39 1 -40 36 -40 l36 0 -4 213
c-3 137 -9 223 -17 242 -41 99 -167 146 -304 114z m243 -353 c0 -65 -27 -110
-85 -140 -50 -26 -136 -27 -183 -2 -40 20 -65 73 -56 114 16 66 55 81 207 82
l117 0 0 -54z"/>
<path d="M14380 560 l0 -290 34 0 34 0 4 188 c3 183 4 188 30 234 36 60 91 88
175 88 70 0 115 -24 147 -80 19 -32 21 -55 24 -232 l4 -198 34 0 34 0 0 193
c0 202 -6 243 -43 298 -70 105 -263 116 -367 22 l-40 -35 0 51 0 51 -35 0 -35
0 0 -290z"/>
<path d="M15252 832 c-70 -25 -118 -66 -155 -130 -81 -145 -21 -339 128 -408
99 -47 244 -27 318 43 33 33 34 38 2 59 -24 16 -26 15 -60 -14 -98 -87 -264
-55 -324 62 -43 84 -29 209 32 275 72 78 227 82 302 7 25 -25 27 -25 50 -10
14 9 25 19 25 23 0 13 -64 68 -98 86 -52 26 -157 29 -220 7z"/>
<path d="M15852 832 c-73 -27 -122 -69 -157 -137 -26 -51 -30 -69 -29 -139 0
-90 21 -144 78 -204 50 -54 101 -75 191 -80 100 -5 165 19 224 83 73 79 97
184 67 288 -46 158 -218 244 -374 189z m186 -67 c82 -35 121 -102 122 -206 0
-124 -69 -210 -181 -225 -94 -13 -191 43 -225 131 -26 70 -17 172 21 227 55
79 170 111 263 73z"/>
</g>
</svg>
