<svg id="eEyaDWXSGVg1" xmlns="http://www.w3.org/2000/svg" xmlns:xlink="http://www.w3.org/1999/xlink" viewBox="0 0 2000 443" shape-rendering="geometricPrecision" text-rendering="geometricPrecision"><g transform="matrix(.1 0 0-.1 0 419.780326)"><path d="M5435,3690c-451-45-843-351-978-765-41-127-57-233-57-387c0-207,33-350,122-534c152-312,478-545,844-604c100-16,394-17,474-2c202,40,413,132,548,240l42,34v434v434h-115-115v-384-385l-58-35c-141-86-283-124-488-133-250-10-437,40-624,167-69,47-166,141-218,212-55,75-118,202-142,290-62,221-39,502,58,693c160,318,495,515,876,515c263,0,474-74,650-228l39-34l75,76l76,75-24,27c-73,79-252,188-390,236-157,55-393,78-595,58Z" fill="#fff"/><path d="M7995,3694c-306-30-532-129-736-322-166-157-274-354-325-594-25-114-25-350,0-471c57-284,208-527,431-692c139-103,353-191,520-214c294-41,538-11,774,93c97,43,213,114,264,161l27,26-2,427-3,427-112,3-113,3v-380-380l-32-24c-205-154-604-202-903-108-217,68-432,254-537,466-151,304-125,697,65,970c43,61,164,179,232,225c162,109,367,170,575,170c113,0,253-20,334-46c84-27,217-101,290-160l69-56l68,73c38,40,69,77,69,82c0,11-56,61-134,120-97,74-265,147-411,178-87,19-318,32-410,23Z" fill="#fff"/><path d="M372,2543l3-1138h755h755v100v100l-637,3-638,2v1035v1035h-120-120l2-1137Z" fill="#fff"/><path d="M2956,3643c-19-39-141-306-473-1033-102-223-235-513-295-645-210-458-248-543-248-554c0-8,36-11,122-9l121,3l67,150c37,83,95,213,129,290c35,77,68,146,73,153c8,9,144,12,641,10l631-3l88-195c49-107,110-242,137-300l48-105l123-3l122-3-6,24c-3,14-46,112-95,218-49,107-173,379-276,604-103,226-200,437-215,470s-112,245-215,470c-103,226-196,429-206,453l-18,42h-119-118l-18-37Zm435-892c132-294,239-538,239-542c0-5-243-9-540-9-331,0-540,4-540,9c0,12,188,438,511,1156c10,23,21,44,25,48s21-23,37-60c16-38,137-308,268-602Z" fill="#fff"/><path d="M9610,2957c0-672,1-733,19-833c38-213,103-354,220-477c106-111,246-192,397-232c153-40,443-39,599,1c280,73,486,265,573,534c57,177,57,173,57,980v745l-112,3c-110,3-113,2-118-20-3-13-6-356-8-763-3-736-3-740-25-820-73-253-212-393-456-455-111-28-311-28-419,0-88,23-176,60-215,90-102,79-169,168-212,281-54,146-53,139-59,939l-6,745-117,3-118,3v-724Z" fill="#fff"/><path d="M12205,3668c-3-7-4-519-3-1138l3-1125h805h805v100v100l-683,3-682,2l2,423l3,422l583,3l582,2v100v100h-585-585v405v405l658,2l657,3v100v100l-778,3c-617,2-779,0-782-10Z" fill="#fff"/><path d="M14385,3668c-3-7-4-519-3-1138l3-1125l118-3l117-3v354c0,261,3,356,12,365s111,12,400,12h387l259-362l258-363l127-3c78-2,127,1,127,7s-121,180-270,388c-148,208-270,380-270,383s26,15,58,28c172,70,302,186,377,336c56,114,76,207,76,356c0,144-19,241-69,345-114,235-331,375-651,419-148,21-1049,24-1056,4Zm1112-226c228-60,373-198,413-395c16-80,14-240-5-310-50-192-182-316-402-379-75-22-92-23-478-23h-400l-3,555c-1,305,0,561,3,568c4,11,78,13,397,9c363-3,399-5,475-25Z" fill="#fff"/><path d="M16700,1920v-1650h1650h1650v1650v1650h-1650-1650v-1650Zm1135,555c3-95,29-227,65-335c30-91,99-263,109-273c4-4,45,142,91,325c45,183,86,343,91,356c8,22,12,22,172,22h164l13-111c17-158,52-320,90-417c33-87,108-209,125-205c10,3,21,43,125,476l62,257h169h169v-29c0-117-52-338-155-651-40-124-86-279-100-345-42-188-68-236-158-281-105-54-183-38-270,55-74,79-128,198-187,411-34,123-40,135-60,135-21,0-29-16-80-171-32-95-75-204-96-244-63-120-169-220-234-220-34,0-97,37-123,72-46,61-69,121-108,277-21,86-78,282-128,436-102,317-163,533-155,546c3,5,94,8,206,7l200-3l3-90Z" fill="#f00"/><path d="M3980,1060c-11-11-20-27-20-35c0-21,36-55,58-55c24,0,52,31,52,57c0,23-30,53-53,53-9,0-26-9-37-20Z" fill="#fff"/><path d="M11113,1061c-59-28-83-70-83-148v-63h-55-55v-35-35h55h55v-255-255h35h35v255v255h85h85v35v35h-85-85v55c0,47,4,60,25,81c23,23,33,25,78,22c29-2,59-8,68-12c11-5,19,1,27,19c10,22,9,27-14,42-39,25-121,27-171,4Z" fill="#fff"/><path d="M1263,1021c-200-73-299-283-233-492c37-116,118-199,238-241c84-30,224-22,309,16c34,15,71,38,82,50l21,22-25,24-25,23-23-21c-75-71-233-90-337-41-100,48-158,124-180,235-29,146,44,288,180,353c104,49,262,30,337-41l23-21l25,23l25,24-22,23c-12,13-47,35-77,50-76,36-237,43-318,14Z" fill="#fff"/><path d="M3550,910v-60h-50-50v-35-35h49h50l3-202c3-226,10-251,71-288c40-25,135-27,177-5c32,17,36,26,20,55-9,17-13,17-38,4-45-23-90-18-123,15l-29,29v196v196h85h85v35v35h-85-85v60v60h-40-40v-60Z" fill="#fff"/><path d="M7810,910v-60h-50-50v-35-35h49h50l3-202c3-226,10-251,71-288c40-25,135-27,177-5c32,17,36,26,20,55-9,17-13,17-38,4-45-23-90-18-123,15l-29,29v196v196h85h85v35v35h-85-85v60v60h-40-40v-60Z" fill="#fff"/><path d="M9620,910v-60h-50-50v-35-35h49h50l3-208c3-230,7-243,71-282c40-25,135-27,177-5c32,17,36,26,20,55-9,17-13,17-38,4-62-32-135-7-151,54-6,20-11,115-11,210v172h90h90v35v35h-90-90v60v60h-35-35v-60Z" fill="#fff"/><path d="M1840,560v-290h34h34l4,183c3,164,6,186,25,223c27,51,79,85,139,92c44,5,44,5,44,45v40l-41-7c-61-10-115-41-144-83l-25-38v63v62h-35-35v-290Z" fill="#fff"/><path d="M2389,834c-63-19-131-81-160-146-35-78-33-193,4-264c52-101,144-154,268-154c76,0,134,18,185,56l35,27-22,23-21,22-45-28c-82-52-187-52-266,1-47,31-87,94-87,137c0,22,0,22,236,22h237l-5,65c-15,182-182,294-359,239Zm168-65c58-22,123-106,123-160c0-18-11-19-201-19h-202l6,36c15,89,96,154,194,154c28,0,64-5,80-11Z" transform="translate(.000001 0)" fill="#fff"/><path d="M3007,839c-43-10-137-56-137-67c0-4,7-17,15-29l15-22l47,26c61,35,182,44,232,19c42-22,71-71,71-122v-42l-137-4c-123-3-143-6-180-28-47-26-83-85-83-137c0-50,41-114,90-140c63-33,167-32,237,2c28,14,54,32,57,40c11,29,26,14,26-25s1-40,36-40h36l-4,213c-3,137-9,223-17,242-41,99-167,146-304,114Zm243-353c0-65-27-110-85-140-50-26-136-27-183-2-40,20-65,73-56,114c16,66,55,81,207,82h117v-54Z" fill="#fff"/><path d="M3980,560v-290h35h35v290v290h-35-35v-290Z" fill="#fff"/><path d="M4171,843c0-5,55-134,123-288l122-280l40-3l39-3l47,108c26,59,83,190,127,291l80,182h-37-37L4570,609c-57-132-107-242-110-244s-53,106-111,240L4245,850h-37c-21,0-38-3-37-7Z" fill="#fff"/><path d="M4979,836c-87-31-149-93-177-175-15-42-15-153-2-203c17-61,69-119,139-155c54-28,73-33,135-33c84,0,150,20,194,58c32,27,32,27,14,50l-18,24-38-26c-123-83-291-45-347,78-36,80-49,76,222,76h241l-6,58c-9,76-48,154-99,197-68,58-177,80-258,51Zm168-71c21-9,46-23,56-33c22-20,51-75,61-114l6-28h-205c-231,0-222-3-186,75c46,100,164,143,268,100Z" fill="#fff"/><path d="M5929,836c-80-21-153-88-184-170-27-69-18-198,18-259c53-90,139-137,252-137c82,0,144,23,189,69l37,38-25,17c-25,16-27,15-71-18-105-81-258-47-319,70-31,58-29,174,3,231c34,60,89,95,156,101c78,6,116-4,162-42l40-35l28,19l29,19-42,40c-67,64-168,85-273,57Z" fill="#fff"/><path d="M6545,840c-56-14-84-29-125-66-61-56-83-104-88-202-4-77-3-87,28-148c54-110,145-160,278-152c122,6,221,83,252,195c18,61,8,178-18,229-58,113-201,177-327,144Zm193-94c59-41,87-102,87-191-1-86-27-142-86-185-101-73-254-38-310,71-45,90-30,215,33,276c55,53,85,64,164,61c59-3,78-8,112-32Z" fill="#fff"/><path d="M7060,560v-290h40h40v183c0,208,9,243,75,293c32,24,49,29,109,32c91,4,132-15,164-78c21-41,22-57,22-237v-193h41h42l-5,203c-5,223-12,254-71,315-82,84-262,78-346-12-14-14-28-26-33-26-4,0-8,23-8,50v50h-35-35v-290Z" fill="#fff"/><path d="M8349,834c-63-19-131-81-160-146-35-78-33-193,4-264c52-101,144-154,268-154c76,0,134,18,185,56l35,27-22,23-21,22-45-28c-82-52-187-52-266,1-47,31-87,94-87,137c0,22,0,22,236,22h237l-5,65c-15,182-182,294-359,239Zm168-65c58-22,123-106,123-160c0-18-11-19-201-19h-202l6,36c15,89,96,154,194,154c28,0,64-5,80-11Z" transform="translate(.000001 0)" fill="#fff"/><path d="M8870,560v-290h40h40v183c0,208,9,243,75,293c32,24,49,29,109,32c91,4,132-15,164-78c21-41,22-57,22-237v-193h41h42l-5,203c-5,223-12,254-71,315-82,84-262,78-346-12-14-14-28-26-33-26-4,0-8,23-8,50v50h-35-35v-290Z" fill="#fff"/><path d="M10462,832c-67-24-133-88-163-155-31-74-25-204,14-269c54-93,139-138,258-138c124,0,237,83,269,198c15,54,12,142-6,195-20,60-82,129-140,156-67,32-164,37-232,13Zm194-68c109-52,151-193,95-320-50-112-211-148-313-71-61,47-83,96-83,188c0,67,4,81,30,124c40,64,97,95,178,95c34,0,74-7,93-16Z" fill="#fff"/><path d="M11762,835c-102-29-134-55-113-94c11-20,12-20,63,7c68,35,177,43,233,16c42-19,74-77,75-130v-32l-137-4c-112-3-146-7-178-23-56-28-85-75-85-140c0-103,76-165,202-165c77,0,129,18,171,57l27,27v-42c0-41,1-42,35-42h35v208c-1,215-8,261-47,304-51,57-180,81-281,53Zm258-344c0-78-55-143-139-162-128-29-225,55-180,155c20,44,62,56,197,56h122v-49Z" fill="#fff"/><path d="M12590,560v-290h34h34l4,188c3,178,4,189,28,232c34,61,87,90,165,90c76,0,119-24,145-83c17-37,20-66,20-234v-193h34h34l4,183c3,165,6,186,27,230c32,65,86,97,168,97c46,0,68-5,94-23c63-42,69-68,69-289v-198h40h40v174c0,197-10,264-45,318-72,109-268,116-370,13l-44-43-23,33c-38,57-91,80-178,80-83,0-122-15-177-68l-33-31v52v52h-35-35v-290Z" fill="#fff"/><path d="M13847,839c-43-10-137-56-137-67c0-4,7-17,15-29l15-22l47,26c61,35,182,44,232,19c42-22,71-71,71-122v-42l-137-4c-123-3-143-6-180-28-47-26-83-85-83-137c0-50,41-114,90-140c63-33,167-32,237,2c28,14,54,32,57,40c11,29,26,14,26-25s1-40,36-40h36l-4,213c-3,137-9,223-17,242-41,99-167,146-304,114Zm243-353c0-65-27-110-85-140-50-26-136-27-183-2-40,20-65,73-56,114c16,66,55,81,207,82h117v-54Z" fill="#fff"/><path d="M14380,560v-290h34h34l4,188c3,183,4,188,30,234c36,60,91,88,175,88c70,0,115-24,147-80c19-32,21-55,24-232l4-198h34h34v193c0,202-6,243-43,298-70,105-263,116-367,22l-40-35v51v51h-35-35v-290Z" fill="#fff"/><path d="M15252,832c-70-25-118-66-155-130-81-145-21-339,128-408c99-47,244-27,318,43c33,33,34,38,2,59-24,16-26,15-60-14-98-87-264-55-324,62-43,84-29,209,32,275c72,78,227,82,302,7c25-25,27-25,50-10c14,9,25,19,25,23c0,13-64,68-98,86-52,26-157,29-220,7Z" fill="#fff"/><path d="M15852,832c-73-27-122-69-157-137-26-51-30-69-29-139c0-90,21-144,78-204c50-54,101-75,191-80c100-5,165,19,224,83c73,79,97,184,67,288-46,158-218,244-374,189Zm186-67c82-35,121-102,122-206c0-124-69-210-181-225-94-13-191,43-225,131-26,70-17,172,21,227c55,79,170,111,263,73Z" fill="#fff"/></g></svg>
