<?xml version="1.0" standalone="no"?>
<!DOCTYPE svg PUBLIC "-//W3C//DTD SVG 20010904//EN"
 "http://www.w3.org/TR/2001/REC-SVG-20010904/DTD/svg10.dtd">
<svg version="1.0" xmlns="http://www.w3.org/2000/svg"
 width="3840.000000pt" height="2160.000000pt" viewBox="0 0 3840.000000 2160.000000"
 preserveAspectRatio="xMidYMid meet">

<g transform="translate(0.000000,2160.000000) scale(0.100000,-0.100000)"
fill="#000000" stroke="none">
<path d="M0 13544 l0 -8057 68 -65 c78 -75 205 -179 382 -312 153 -114 243
-203 302 -295 60 -95 100 -198 103 -265 1 -19 7 -45 13 -57 7 -12 8 -24 3 -27
-5 -3 -16 9 -25 27 -60 116 -170 287 -226 350 -29 31 -145 130 -258 219 -114
89 -209 164 -212 167 -3 3 -38 34 -77 69 l-73 64 0 -2227 0 -2226 23 7 c85 26
242 102 322 156 60 41 143 130 158 170 4 12 13 28 19 36 7 8 13 20 14 28 1 7
14 38 28 68 14 30 26 60 26 66 0 6 5 8 10 5 6 -3 10 0 10 7 0 20 92 108 119
113 13 2 29 9 35 15 7 5 16 7 19 3 4 -3 7 -1 7 5 0 6 7 9 15 6 8 -4 15 -2 15
4 0 5 10 10 23 11 94 5 172 3 299 -8 207 -17 401 -3 553 41 39 11 76 25 84 32
8 6 17 10 20 10 12 -3 36 10 49 25 11 13 12 13 6 1 -7 -13 -5 -13 9 -1 9 7 14
17 11 22 -3 5 3 9 13 10 11 0 13 3 5 6 -6 2 -10 8 -7 12 2 5 -15 5 -38 0 -58
-11 -207 -11 -207 0 0 6 -12 6 -32 0 -41 -11 -47 -11 -28 1 12 8 11 10 -7 10
-13 0 -23 5 -23 11 0 5 -4 8 -9 4 -6 -3 -9 4 -8 15 1 15 6 18 20 14 14 -4 17
-3 12 7 -6 9 -3 11 8 6 10 -3 17 -2 17 4 0 6 4 8 10 4 5 -3 17 -1 27 4 20 10
52 23 68 26 6 1 12 3 15 4 3 2 14 4 25 6 11 2 31 6 45 9 54 14 90 18 205 23
122 5 248 -9 362 -41 26 -8 68 -17 93 -20 24 -4 50 -12 57 -18 7 -6 13 -8 13
-5 0 3 17 1 38 -4 32 -8 186 -42 247 -55 28 -6 252 -5 300 1 22 3 60 7 84 10
25 4 47 8 51 10 3 2 11 1 17 -3 7 -5 -20 -29 -68 -61 -44 -29 -86 -58 -92 -65
-7 -6 -22 -16 -32 -23 -11 -7 -51 -31 -90 -55 -38 -24 -85 -49 -105 -56 -137
-52 -196 -59 -320 -42 -74 10 -115 17 -115 20 0 1 -8 3 -19 5 -10 2 -39 8 -65
14 -25 6 -68 13 -96 17 -99 14 -346 7 -375 -11 -7 -4 -35 -9 -63 -12 -89 -7
-95 -8 -91 -14 2 -4 -6 -7 -19 -8 -134 -7 -191 -9 -307 -10 l-135 -1 34 -27
c19 -15 68 -42 108 -59 41 -18 80 -37 87 -43 7 -6 43 -22 81 -36 38 -15 78
-31 89 -38 12 -6 26 -12 31 -12 6 0 9 -8 7 -18 -2 -9 2 -17 8 -17 6 0 9 4 5 9
-3 5 -1 12 4 15 8 5 21 -15 21 -31 0 -3 -16 -2 -36 2 -28 5 -35 3 -31 -7 2 -7
10 -12 16 -10 7 1 11 -6 9 -15 -2 -10 2 -18 7 -18 16 -1 105 -68 105 -79 0 -5
-12 1 -28 15 l-27 24 28 -31 c15 -17 25 -33 22 -36 -3 -2 5 -13 17 -24 12 -10
18 -13 14 -6 -4 6 -2 12 3 12 6 0 11 -5 11 -10 0 -6 11 -22 25 -35 13 -14 21
-25 17 -25 -9 0 33 -24 88 -51 29 -13 76 -23 130 -27 l85 -7 -75 -29 c-41 -16
-85 -41 -99 -55 -13 -14 -21 -20 -17 -13 7 11 4 11 -12 1 -12 -7 -19 -16 -16
-20 2 -5 -5 -6 -16 -4 -11 2 -18 0 -15 -5 6 -9 -13 -25 -30 -25 -5 0 -10 -5
-10 -11 0 -6 -8 -18 -17 -28 -10 -10 -18 -21 -18 -26 0 -5 -12 -20 -26 -33
-35 -33 -29 -60 16 -67 33 -5 34 -6 13 -18 -17 -9 -22 -9 -26 1 -4 8 -6 7 -6
-3 -1 -14 -101 -79 -101 -65 0 3 -18 -6 -40 -20 -22 -14 -40 -23 -40 -20 0 3
-12 -1 -28 -9 -77 -40 -426 -143 -542 -161 -19 -3 -78 -11 -130 -19 -74 -11
-182 -14 -495 -11 -220 3 -412 2 -428 -1 l-27 -6 0 -124 0 -124 11291 0 11290
0 -24 33 c-53 70 -92 184 -121 352 -9 50 -18 101 -21 115 -3 14 -8 39 -11 55
-7 38 -12 59 -14 65 -1 3 -2 8 -1 13 0 4 -2 7 -6 7 -5 0 -9 16 -9 35 -1 20
-10 45 -20 57 -11 12 -13 18 -6 14 17 -10 15 2 -3 20 -22 23 -19 50 24 175 95
275 121 449 102 661 -6 64 -22 154 -35 200 -14 45 -21 86 -17 90 9 10 74 -23
123 -62 21 -17 56 -55 77 -84 56 -76 146 -242 166 -306 9 -30 19 -62 22 -70
13 -35 16 -65 20 -251 l4 -196 -32 -33 c-18 -17 -50 -43 -71 -56 -21 -14 -36
-29 -33 -35 4 -5 9 -8 13 -5 4 2 38 7 77 11 38 4 73 9 77 11 3 2 9 0 13 -6 4
-6 10 -8 15 -5 5 3 11 1 15 -4 3 -6 26 -13 50 -17 25 -3 45 -9 45 -13 0 -3
-45 -24 -100 -44 -55 -21 -110 -48 -122 -58 l-23 -20 40 5 c22 3 94 14 160 26
66 11 147 20 180 19 l60 0 -100 -24 c-157 -37 -166 -44 -45 -39 l105 5 -37
-23 c-21 -13 -38 -26 -38 -30 0 -4 38 -4 85 -1 94 7 117 -8 43 -27 -147 -37
-288 -101 -352 -160 -56 -52 -89 -114 -141 -270 l-44 -130 685 0 684 0 -37 57
c-20 32 -72 136 -115 232 -43 95 -94 203 -114 240 -60 111 -176 279 -291 421
-438 544 -656 804 -929 1105 -200 221 -327 375 -540 656 -187 248 -276 338
-386 392 -111 55 -201 73 -668 132 -199 25 -450 65 -515 82 -33 8 -139 44
-235 80 -106 40 -272 90 -420 128 -241 62 -318 83 -655 185 -205 61 -428 135
-473 156 -18 8 -40 17 -50 19 -9 2 -49 15 -88 29 -39 14 -83 27 -97 28 -15 1
-29 8 -31 15 -3 7 -2 12 2 11 19 -4 132 37 137 50 4 10 0 12 -12 8 -16 -6 -16
-5 -3 8 9 9 60 21 125 31 187 27 358 1 720 -112 99 -30 245 -75 324 -99 228
-68 286 -94 416 -189 102 -73 162 -110 240 -146 61 -28 84 -33 170 -37 65 -3
130 1 185 11 206 38 299 33 590 -35 352 -81 522 -141 652 -229 120 -82 277
-213 446 -372 46 -43 85 -77 87 -75 10 9 -18 93 -56 168 -22 45 -47 101 -55
123 -19 53 -18 125 2 162 9 17 23 42 31 58 13 23 41 47 57 47 4 0 19 -55 16
-65 0 -3 6 -13 15 -21 8 -9 13 -19 10 -24 -3 -5 -1 -11 5 -15 5 -3 10 -22 10
-41 0 -19 5 -34 10 -34 6 0 9 -3 8 -7 -2 -10 8 -56 33 -148 10 -38 33 -128 50
-200 67 -278 130 -405 349 -710 111 -154 259 -350 431 -570 69 -88 192 -252
274 -365 186 -258 348 -460 459 -573 47 -48 86 -92 86 -98 0 -6 4 -8 9 -5 5 3
12 -5 15 -18 6 -23 72 -113 137 -183 32 -36 29 -41 -11 -18 -33 19 -41 18 -33
-2 4 -11 3 -14 -5 -9 -7 4 -12 5 -12 2 0 -13 125 -88 225 -137 61 -29 121 -60
135 -68 l24 -16 -34 -6 c-19 -4 2693 -7 6027 -8 l6062 -1 58 48 c74 62 150
147 344 387 185 229 224 280 273 364 65 111 86 211 44 211 -10 0 -18 -5 -18
-12 0 -6 -3 -8 -6 -5 -9 8 -104 -71 -105 -86 0 -7 -29 -37 -65 -67 -63 -54
-351 -342 -409 -410 -16 -20 -74 -88 -128 -152 -129 -154 -198 -205 -307 -227
-115 -23 -259 -30 -700 -36 -387 -4 -451 -3 -431 9 39 22 10 27 -116 21 -146
-7 -133 5 37 35 292 50 514 101 525 121 10 15 -56 10 -273 -20 -114 -17 -295
-42 -402 -56 -107 -15 -233 -33 -280 -41 -100 -16 -111 -17 -87 -3 52 30 275
86 540 135 104 19 242 48 307 64 111 28 538 155 671 200 32 11 67 22 76 23 47
10 163 66 170 82 3 8 9 12 14 9 5 -3 9 0 9 5 0 15 -34 14 -175 -4 -170 -21
-178 -21 -173 9 5 24 3 24 -43 21 -27 -3 -84 -13 -126 -24 -181 -45 -615 -104
-733 -101 -24 1 -24 2 -4 10 11 4 115 29 230 55 258 58 476 120 613 174 143
58 350 158 462 224 135 79 173 128 60 77 -24 -11 -46 -18 -49 -16 -2 3 -14 0
-26 -6 -16 -8 -18 -8 -10 1 6 7 18 13 25 15 16 2 20 5 168 101 170 109 274
234 274 329 0 26 9 55 24 79 14 22 34 60 45 86 10 25 25 59 33 76 17 41 53
144 59 175 29 134 32 158 41 330 3 69 8 164 10 212 6 117 15 169 28 161 6 -4
8 0 5 9 -4 8 2 20 13 27 11 6 17 17 13 23 -4 7 -3 8 5 4 6 -4 14 -1 17 7 5 13
14 18 54 28 3 0 14 6 25 12 11 6 29 12 40 13 11 1 31 5 45 8 49 12 159 8 214
-8 36 -11 68 -29 91 -52 51 -51 67 -33 44 50 -21 77 -121 145 -272 186 -91 24
-297 60 -351 60 -32 1 -37 3 -24 10 9 6 62 11 117 13 56 1 101 5 101 9 0 4 8
5 18 1 16 -6 16 -5 -1 14 -9 11 -14 23 -10 28 5 4 2 5 -5 1 -7 -4 -10 -11 -8
-15 3 -4 -27 9 -67 29 -40 20 -79 35 -87 32 -10 -3 -12 -1 -5 6 6 7 61 12 135
13 117 2 123 3 92 16 -19 7 -80 21 -135 29 -99 15 -285 15 -567 -1 l-85 -5 45
16 c25 8 108 30 185 49 185 44 317 92 391 142 76 50 122 73 146 73 10 0 18 5
18 11 0 5 5 7 10 4 6 -3 16 -3 23 2 61 38 222 31 452 -18 116 -26 174 -33 156
-21 -11 8 -11 10 0 15 40 14 -314 139 -486 171 -168 32 -178 35 -80 30 161 -9
254 -31 605 -146 118 -38 234 -76 258 -83 l42 -13 0 7688 c0 4229 -3 7691 -8
7693 -4 3 -32 8 -62 12 -176 22 -378 79 -537 152 -32 15 -45 43 -20 43 6 0
150 0 320 0 l307 -1 0 84 0 84 -62 8 c-98 12 -109 13 -173 20 -71 7 -106 11
-160 18 -22 3 -62 8 -90 11 -79 10 -103 16 -114 30 -8 9 -7 13 4 13 8 0 15 -3
15 -6 0 -4 44 -7 98 -8 53 -1 111 -4 127 -7 44 -8 263 -43 313 -50 l42 -6 0
1230 0 1230 -721 0 -722 0 7 -112 c12 -204 17 -528 9 -528 -26 0 -67 231 -85
478 l-11 162 -7842 0 -7843 0 -32 -97 c-18 -54 -66 -188 -107 -298 -130 -347
-181 -503 -252 -770 -39 -143 -92 -321 -120 -395 -27 -74 -72 -194 -99 -267
-62 -167 -90 -263 -152 -543 -28 -124 -62 -268 -76 -320 -70 -261 -94 -367
-99 -433 -14 -192 -26 -282 -60 -477 -8 -47 -28 -170 -45 -275 -51 -324 -79
-428 -80 -300 0 174 35 471 94 785 25 133 27 156 12 139 -13 -13 -26 -53 -70
-209 -17 -60 -42 -106 -32 -59 3 14 8 44 11 65 24 162 39 238 65 341 17 65 33
132 36 148 3 17 22 91 43 165 21 74 48 173 60 220 12 47 31 117 42 157 10 39
19 82 19 95 0 12 19 75 41 138 22 63 49 142 59 175 10 33 57 174 105 312 49
146 113 361 150 508 60 237 122 438 173 560 28 67 144 372 197 518 l43 117
-1314 0 c-723 0 -1314 -2 -1314 -4 0 -3 41 -87 90 -187 107 -216 139 -294 144
-348 2 -22 7 -44 11 -50 4 -7 0 -8 -10 -5 -27 11 -119 165 -284 477 -53 100
-66 117 -87 117 -13 0 -24 -2 -24 -5 0 -3 22 -50 50 -105 27 -55 47 -100 45
-100 -3 0 -32 47 -66 105 l-61 105 -9149 0 -9149 0 0 -8056z m4399 7740 c74
-19 193 -52 265 -74 267 -80 402 -105 600 -114 65 -2 120 -7 123 -9 9 -10 -95
-15 -227 -12 -138 3 -259 22 -455 71 -146 37 -484 143 -525 166 l-35 19 60 -6
c33 -4 120 -22 194 -41z m29087 -453 c-3 -4 -36 -20 -73 -36 -141 -58 -433
-207 -568 -288 -77 -46 -227 -144 -333 -217 -106 -73 -195 -130 -197 -128 -4
4 118 102 300 240 219 166 543 341 773 417 81 27 109 31 98 12z m4191 -1425
c21 -8 63 -22 93 -31 30 -9 82 -29 115 -45 33 -15 91 -40 129 -56 38 -15 64
-30 57 -32 -6 -2 -18 1 -26 8 -8 6 -19 9 -25 5 -5 -3 -10 -1 -10 5 0 7 -6 10
-14 7 -7 -3 -19 0 -25 6 -6 6 -11 8 -11 4 0 -4 -17 0 -37 8 -21 7 -69 21 -108
31 -38 9 -82 23 -97 30 -15 8 -30 13 -32 12 -2 -2 -14 6 -27 17 -12 11 -19 14
-15 7 6 -10 2 -10 -18 0 -14 6 -26 17 -26 25 0 17 30 17 77 -1z m-30022 -967
c56 -11 143 -51 255 -117 115 -67 114 -67 107 -48 -8 20 -19 27 154 -90 78
-53 205 -126 300 -172 248 -121 351 -204 412 -329 12 -24 26 -43 32 -43 7 0
12 -6 12 -14 0 -10 -10 -12 -39 -9 -41 6 -47 -1 -23 -27 13 -15 10 -15 -38 -9
-93 12 -216 64 -432 182 -11 6 -23 12 -27 13 -5 1 -9 2 -10 4 -2 1 -12 3 -22
5 -10 2 -22 9 -26 15 -4 7 -10 11 -14 11 -29 -4 -46 1 -40 11 4 6 3 8 -3 5 -6
-4 -48 7 -94 23 -46 16 -160 49 -254 75 -181 49 -294 83 -310 95 -5 4 -31 15
-57 25 -27 10 -48 22 -48 26 0 5 -3 8 -7 8 -19 -3 -33 2 -49 19 -10 9 -21 17
-26 17 -4 0 -9 5 -9 10 -1 6 -14 18 -30 27 -15 9 -33 27 -40 40 -7 13 -21 31
-32 41 -11 9 -17 17 -13 17 4 0 2 9 -4 20 -8 16 -6 21 11 31 15 8 24 8 28 1 4
-7 12 -8 21 -2 13 8 12 11 -4 23 -13 10 -15 16 -8 21 7 4 12 2 12 -3 0 -6 5
-11 11 -11 5 0 8 4 5 9 -4 5 3 7 13 4 30 -8 61 14 61 43 0 14 -4 23 -9 20 -5
-3 -14 1 -20 8 -9 11 -9 16 1 22 35 22 154 23 253 3z m30725 -1353 c-5 -13
-34 -59 -64 -103 -111 -158 -141 -200 -201 -288 -100 -146 -106 -155 -199
-280 -193 -260 -369 -465 -685 -800 -72 -77 -256 -273 -408 -435 -152 -162
-456 -475 -677 -696 -318 -317 -459 -450 -681 -639 -566 -483 -646 -580 -828
-1000 -152 -353 -322 -710 -620 -1310 -303 -607 -304 -611 -397 -1090 -38
-194 -69 -325 -179 -745 -23 -85 -61 -232 -86 -326 -51 -196 -124 -438 -154
-506 -20 -48 -42 -70 -49 -50 -2 7 -10 19 -18 27 -38 38 -27 134 72 644 55
283 85 410 158 651 30 100 76 270 101 378 88 374 115 446 340 907 81 165 242
494 358 730 115 237 259 533 318 658 59 126 127 261 150 300 106 179 233 319
619 681 617 577 1054 1007 1408 1381 130 138 340 356 466 485 284 292 510 541
700 775 180 220 154 188 261 325 177 227 280 349 297 350 4 0 3 -11 -2 -24z
m-22307 -2508 c-5 -24 -15 -51 -35 -93 -6 -14 -43 -67 -81 -117 -152 -199
-229 -345 -306 -573 -85 -254 -104 -362 -108 -619 -2 -121 -5 -222 -7 -224 -2
-2 -4 12 -4 31 0 19 -6 61 -13 93 -40 187 12 534 127 836 80 211 166 363 292
517 26 32 66 84 90 115 24 31 45 56 47 56 2 0 1 -10 -2 -22z m4021 -1308
c-152 -159 -283 -224 -605 -301 -93 -22 -247 -62 -342 -88 -325 -92 -536 -132
-942 -176 -240 -26 -594 -157 -800 -295 -102 -68 -230 -196 -330 -330 -43 -58
-106 -139 -140 -180 -79 -97 -217 -277 -241 -314 -18 -29 -18 -29 1 -18 11 6
70 55 130 108 152 134 322 274 370 305 55 36 109 52 148 44 134 -27 346 -119
572 -247 163 -93 583 -295 1010 -488 88 -40 335 -160 549 -268 298 -150 392
-202 404 -222 9 -15 28 -34 43 -42 15 -9 32 -25 38 -37 11 -20 11 -20 -41 -5
-202 59 -994 413 -1453 649 -465 239 -783 395 -860 421 -63 22 -98 28 -165 28
-141 0 -222 -45 -444 -244 -72 -65 -228 -202 -346 -305 -118 -103 -264 -234
-325 -289 -162 -149 -331 -298 -495 -436 -310 -261 -366 -310 -410 -356 -38
-40 -40 -45 -15 -29 17 10 46 30 65 45 32 24 165 115 199 135 36 21 -30 -62
-84 -106 -33 -27 -104 -86 -157 -131 -53 -46 -312 -263 -575 -484 -1766 -1479
-1623 -1359 -1893 -1589 -366 -313 -652 -556 -874 -743 -116 -98 -307 -260
-425 -361 -279 -238 -340 -283 -735 -546 -201 -133 -356 -243 -397 -283 -99
-92 -134 -171 -139 -312 l-2 -35 -10 35 c-17 58 -4 187 26 253 14 32 26 59 26
61 0 20 -95 -41 -111 -71 -7 -12 -16 -20 -22 -16 -5 3 -7 -8 -3 -28 3 -19 3
-28 0 -21 -8 17 -22 15 -26 -5 -3 -10 -8 1 -12 24 -8 47 -3 44 -129 72 -81 18
-197 72 -197 93 0 4 39 7 88 6 106 -2 155 18 277 115 101 80 205 149 320 214
509 287 541 312 839 643 27 30 115 125 195 210 169 180 261 284 261 295 0 14
-159 -106 -168 -127 -2 -5 -10 -8 -18 -8 -8 0 -14 -3 -14 -7 0 -5 -16 -19 -36
-33 -20 -13 -49 -36 -64 -50 -100 -92 -240 -194 -314 -230 -34 -15 -98 -36
-143 -45 -121 -24 -589 -48 -570 -29 8 9 122 25 332 49 331 37 374 49 500 128
99 62 293 232 280 245 -3 3 -42 -19 -88 -50 -45 -30 -93 -62 -107 -70 -42 -26
-169 -68 -203 -68 -28 0 -20 7 59 49 120 63 161 93 312 220 213 180 312 247
509 344 159 78 313 187 494 347 566 501 686 614 1453 1365 431 422 511 510
647 714 152 226 245 431 349 766 29 94 87 265 130 381 43 116 92 255 109 310
29 93 92 389 106 499 3 28 10 82 16 120 5 39 12 84 14 100 2 17 9 64 16 105 6
41 13 93 14 115 1 22 2 53 3 68 1 16 6 25 12 22 5 -3 7 0 4 9 -3 8 2 25 11 39
8 13 17 33 19 43 2 11 9 39 16 64 12 43 13 44 22 20 14 -35 3 -254 -21 -430
-18 -131 -40 -334 -56 -510 -13 -135 -62 -404 -102 -550 -138 -515 -283 -829
-589 -1281 -52 -78 -93 -143 -91 -145 6 -6 232 234 354 376 54 63 145 176 203
250 57 74 132 171 166 215 34 44 165 186 291 315 127 129 315 330 419 445 395
438 574 598 819 729 91 49 480 222 668 297 297 119 564 192 997 274 120 23
234 46 390 80 85 19 247 53 360 75 259 52 332 71 474 121 63 22 140 42 172 44
31 2 59 6 62 10 3 3 10 1 15 -4 6 -6 -11 -32 -49 -71z m-15352 -122 c-28 -42
-31 -73 -10 -93 8 -7 9 -6 4 3 -11 18 5 15 21 -5 14 -17 14 -17 9 0 -3 10 -2
15 3 12 5 -3 12 -1 16 5 4 6 11 8 16 4 5 -3 16 0 24 6 8 7 15 9 15 5 0 -4 6
-3 13 3 16 13 117 43 168 49 73 10 58 -24 -76 -167 -79 -84 -102 -112 -240
-295 -54 -71 -101 -132 -105 -135 -4 -3 -18 -21 -31 -40 -36 -53 -109 -128
-155 -161 -23 -15 -61 -47 -84 -69 -77 -74 -160 -121 -160 -91 0 5 34 60 76
123 92 135 163 280 198 402 14 50 30 94 36 100 5 5 10 17 10 26 0 9 9 25 20
35 11 10 20 26 20 35 0 9 3 20 8 24 4 4 7 11 8 14 5 37 47 113 91 162 34 37
110 90 131 90 2 0 -10 -19 -26 -42z m5654 -254 c9 -88 -7 -239 -28 -259 -8 -7
-9 -6 -4 2 3 6 6 81 7 167 1 162 12 204 25 90z m10735 -330 c-45 -248 -58
-334 -67 -449 -3 -44 -8 -82 -9 -83 -2 -2 -7 18 -11 44 -13 91 15 331 61 509
28 107 58 205 62 201 2 -2 -14 -102 -36 -222z m-16021 187 c0 -5 -3 -18 -7
-28 -6 -16 -8 -15 -15 7 -7 22 -7 21 -4 -7 1 -18 0 -31 -2 -28 -2 2 -12 -4
-21 -13 -11 -12 -13 -13 -7 -2 5 8 -10 -6 -33 -33 -24 -26 -46 -45 -51 -42 -4
3 -10 -1 -13 -9 -3 -7 -34 -28 -68 -45 -48 -24 -65 -28 -71 -19 -6 10 -8 10
-8 0 0 -7 -4 -10 -10 -7 -12 7 -14 45 -2 45 7 0 59 42 93 75 9 8 20 15 25 15
5 0 25 13 44 30 19 16 36 27 38 25 3 -2 11 3 19 11 9 8 25 12 37 9 11 -2 15
-2 7 1 -11 5 -11 8 0 15 18 12 49 11 49 0z m80 -62 c0 -21 -55 -81 -127 -140
-79 -63 -153 -106 -153 -89 0 5 -8 10 -17 10 -15 0 -16 -2 -3 -10 8 -5 11 -12
7 -16 -4 -4 -13 -2 -19 4 -16 16 55 91 137 143 33 21 56 39 50 39 -5 1 1 7 15
15 16 9 20 15 10 15 -8 1 8 10 35 20 60 22 65 23 65 9z m-154 -74 c-11 -8 -25
-15 -30 -15 -6 1 0 7 14 15 32 19 40 18 16 0z m5414 -272 c-41 -94 -88 -174
-112 -189 -7 -4 -2 7 11 24 26 37 131 254 132 274 0 9 2 10 5 1 3 -7 -13 -56
-36 -110z m-5470 -384 c-36 -24 -88 -48 -94 -42 -3 4 -6 2 -6 -4 0 -6 -9 -13
-21 -16 -35 -9 -3 19 54 48 52 25 98 36 67 14z m5745 -764 c20 -49 49 -115 65
-145 45 -88 131 -364 145 -465 1 -11 10 -56 18 -100 43 -228 51 -397 21 -460
-15 -32 -19 -36 -22 -20 -2 11 -28 108 -57 215 -100 368 -211 872 -221 1008
-8 94 0 89 51 -33z m14249 -1392 c-151 -148 -236 -225 -242 -218 -12 11 201
229 288 295 18 14 40 30 49 37 9 7 20 13 26 13 5 0 -50 -57 -121 -127z
m-10144 -341 c-121 -108 -240 -229 -240 -244 0 -8 4 -7 11 5 6 9 14 15 18 12
5 -2 14 2 21 10 7 8 18 15 24 15 7 0 6 -4 -2 -9 -8 -4 -13 -11 -12 -15 4 -15
-61 -86 -139 -153 -113 -97 -123 -105 -135 -93 -7 7 -7 13 -1 18 6 4 11 13 13
21 1 7 16 27 32 43 17 16 33 40 36 54 6 22 16 29 37 25 5 -1 6 7 2 18 -3 10 0
25 8 32 7 8 20 24 28 36 38 55 354 311 368 297 3 -3 -28 -35 -69 -72z m150
-166 c0 -4 -265 -351 -343 -451 -56 -70 -139 -149 -222 -210 -146 -108 -205
-178 -289 -344 -68 -133 -104 -191 -119 -191 -19 0 59 276 103 365 56 114 123
189 273 307 166 131 272 225 367 324 114 120 230 221 230 200z m3751 -99 c167
-86 201 -117 53 -48 -87 41 -264 139 -264 147 0 8 57 -19 211 -99z m-5996 -77
c3 -5 -1 -10 -9 -10 -9 0 -16 5 -16 10 0 6 4 10 9 10 6 0 13 -4 16 -10z m55 0
c0 -5 -5 -12 -10 -15 -6 -4 -23 -34 -39 -68 -32 -71 -102 -142 -177 -180 -50
-25 -137 -55 -374 -128 -136 -41 -248 -91 -307 -135 -17 -13 -35 -24 -38 -24
-3 0 -23 -16 -43 -35 -20 -19 -43 -35 -50 -35 -7 0 -10 -4 -7 -10 3 -5 1 -10
-4 -10 -16 0 -15 1 29 74 45 74 46 76 25 76 -8 0 -15 -5 -15 -12 0 -6 -2 -9
-6 -6 -5 6 -47 -2 -91 -16 -19 -6 -22 -4 -16 10 5 13 3 15 -8 9 -11 -7 -12 -6
-2 7 7 8 11 17 8 20 -8 8 16 68 27 68 5 0 6 5 3 10 -3 6 1 10 9 10 9 0 15 4
13 8 -4 17 88 122 154 177 46 38 98 75 104 75 4 0 20 9 36 21 26 18 43 25 114
46 11 3 108 7 215 9 107 2 211 7 230 10 19 4 39 7 43 6 4 -1 20 4 35 12 15 7
36 12 47 10 26 -5 67 5 61 14 -2 4 4 9 15 9 10 1 19 -2 19 -7z m13775 -59
c-20 -33 -403 -271 -540 -335 -44 -21 -88 -42 -97 -47 -23 -12 -68 -12 -68 0
0 5 7 16 15 25 9 8 16 18 15 21 0 3 2 5 5 5 3 0 15 9 28 21 79 77 353 226 519
283 106 37 133 43 123 27z m-14005 -351 c0 -6 -7 -10 -15 -10 -8 0 -15 -4 -15
-8 0 -5 -30 -20 -67 -34 -38 -14 -77 -29 -88 -33 -11 -5 -22 -9 -25 -10 -28
-7 -58 -20 -74 -31 -16 -11 -11 -12 36 -11 35 1 62 -5 77 -15 21 -15 21 -17 4
-21 -10 -2 9 -2 41 1 36 3 57 1 53 -4 -3 -6 8 -8 28 -6 48 6 57 -28 18 -66
-31 -31 -110 -81 -163 -105 -52 -24 -215 -75 -295 -93 -79 -18 -187 -26 -179
-13 3 5 0 9 -5 9 -6 0 -11 6 -11 14 0 25 -19 29 -56 11 -19 -9 -39 -15 -44
-13 -16 5 67 133 128 199 111 120 260 188 517 235 16 3 31 6 33 8 8 8 102 4
102 -4z m2141 -29 c-6 -10 -7 -21 -4 -25 3 -3 1 -6 -5 -6 -7 0 -12 3 -12 6 0
9 20 44 26 44 2 0 0 -8 -5 -19z m-36 -144 c-26 -97 -38 -131 -51 -146 -9 -10
-11 0 -8 45 6 94 9 109 23 106 8 -2 10 4 6 18 -4 12 -2 20 5 20 7 0 9 7 6 16
-4 9 -2 13 5 8 8 -4 9 1 4 17 l-7 24 17 -23 c16 -22 16 -27 0 -85z m25 93 c0
-5 -4 -10 -10 -10 -5 0 -10 5 -10 10 0 6 5 10 10 10 6 0 10 -4 10 -10z m-6951
-38 c-9 -4 -15 -17 -14 -29 1 -13 -4 -23 -12 -23 -9 0 -13 -15 -13 -48 0 -27
-3 -52 -7 -56 -4 -4 -8 -19 -10 -34 -3 -26 -3 -27 13 -7 l17 20 -8 -20 c-5
-11 -10 -33 -11 -50 -2 -42 -14 -85 -32 -120 -9 -16 -15 -33 -14 -37 1 -5 -4
-8 -10 -8 -9 0 -8 -4 2 -10 11 -7 12 -10 2 -10 -7 0 -20 -7 -28 -15 -15 -14
-11 -20 11 -15 5 1 6 -2 2 -7 -8 -8 -12 -9 -39 -12 -9 -1 -8 -4 2 -11 12 -8
12 -10 1 -10 -8 0 -31 -18 -51 -39 -28 -29 -41 -36 -49 -28 -6 6 -11 17 -11
24 0 8 -12 13 -32 12 l-33 -1 32 -14 c34 -15 52 -34 31 -34 -10 0 -10 -2 1 -9
10 -7 5 -11 -18 -16 -18 -4 -28 -11 -25 -17 4 -6 2 -8 -4 -4 -6 3 -13 2 -17
-4 -3 -5 -12 -10 -18 -10 -7 0 -4 5 5 11 10 5 15 16 11 25 -4 12 0 14 23 9 16
-3 23 -2 17 1 -7 3 -13 12 -13 20 0 8 -10 14 -26 14 -14 0 -22 4 -19 10 3 6
-1 7 -10 4 -9 -4 -14 -13 -11 -21 4 -9 1 -13 -6 -10 -7 2 -12 9 -11 14 1 5 -8
9 -20 10 -12 0 -16 -1 -9 -4 6 -3 12 -11 12 -20 0 -13 -2 -13 -15 1 -33 33 12
161 107 302 34 52 67 94 73 94 6 0 16 9 23 21 11 17 11 20 0 13 -10 -6 -10 -4
1 9 8 10 16 15 18 13 5 -5 17 4 64 47 16 15 35 27 42 27 7 0 18 9 25 20 7 12
17 18 22 15 6 -3 10 1 10 9 0 10 8 16 23 15 17 0 18 -2 6 -7z m4839 -87 c-3
-3 -9 2 -12 12 -6 14 -5 15 5 6 7 -7 10 -15 7 -18z m-4998 -459 c0 -2 -8 -10
-17 -17 -16 -13 -17 -12 -4 4 13 16 21 21 21 13z m2608 -23 c6 -43 -144 -326
-257 -486 -119 -167 -323 -355 -422 -387 -21 -7 -39 -17 -39 -22 0 -4 -6 -8
-14 -8 -8 0 -27 -5 -43 -12 -54 -22 -52 -16 22 57 41 40 75 80 75 89 0 9 5 16
12 16 6 0 9 3 6 6 -4 3 33 65 81 137 48 73 122 184 163 247 94 144 195 280
207 280 5 0 -21 -53 -58 -117 -66 -117 -84 -153 -76 -153 2 0 59 73 126 163
67 89 133 175 148 190 30 33 64 33 69 0z m-2648 -7 c0 -2 -8 -10 -17 -17 -16
-13 -17 -12 -4 4 13 16 21 21 21 13z m5459 -327 c-89 -98 -192 -192 -299 -274
-67 -52 -94 -73 -114 -90 -6 -6 -60 -43 -121 -83 -108 -71 -109 -72 -59 -25
27 26 133 116 235 200 101 83 199 165 216 181 94 88 216 192 221 188 3 -3 -33
-47 -79 -97z m745 56 c221 -26 395 -70 661 -167 127 -47 152 -63 112 -73 -28
-7 -71 -3 -187 19 -41 8 -113 22 -160 30 -47 9 -96 19 -110 21 -14 3 -37 7
-51 10 -14 3 -45 11 -68 20 -23 8 -45 14 -49 13 -4 -1 -14 2 -22 5 -8 3 -59
20 -114 38 -56 19 -108 42 -122 56 -13 12 -28 23 -34 23 -5 0 -10 5 -10 10 0
13 1 13 154 -5z m17411 -115 c4 -6 13 -7 23 -1 12 6 24 5 37 -5 10 -8 15 -14
9 -14 -5 0 -2 -5 6 -10 10 -6 20 -4 30 5 10 9 20 11 30 5 13 -8 12 -10 -2 -10
-20 0 -25 -16 -5 -18 37 -4 67 -11 78 -18 7 -4 24 -8 38 -9 14 -1 50 -12 79
-24 35 -14 52 -17 52 -9 0 9 3 9 12 0 6 -6 10 -13 7 -15 -29 -25 -162 -107
-172 -107 -8 0 -20 -7 -27 -15 -7 -8 -30 -20 -51 -27 -22 -6 -39 -16 -39 -21
0 -6 -3 -8 -6 -4 -4 3 -23 -1 -43 -9 -41 -18 -222 -59 -296 -69 -81 -9 -115
-16 -220 -40 -103 -25 -227 -47 -232 -42 -1 2 55 32 125 68 70 35 129 67 130
72 2 4 8 7 14 7 5 0 36 16 67 35 63 39 129 104 179 177 34 50 113 105 133 92
8 -4 9 -3 5 4 -5 8 0 12 13 12 11 0 23 -5 26 -10z m100 -9 c3 -5 1 -12 -5 -16
-5 -3 -10 1 -10 9 0 18 6 21 15 7z m-13230 -532 c33 -24 102 -65 154 -91 80
-40 90 -48 63 -48 -74 0 -212 74 -331 178 -91 80 -296 320 -335 392 -5 8 81
-76 190 -187 110 -110 226 -221 259 -244z m-11549 269 c4 -6 -9 -25 -32 -45
-56 -49 -61 -52 -68 -46 -3 4 -6 2 -6 -4 0 -9 -27 -21 -47 -21 -3 0 -10 -7
-15 -16 -5 -9 -13 -14 -17 -12 -4 3 -18 -4 -29 -15 -12 -11 -22 -17 -22 -14 0
8 -104 -47 -112 -59 -4 -6 -8 -8 -8 -4 0 3 -23 -3 -51 -13 -28 -11 -54 -18
-56 -15 -20 20 132 143 242 196 163 78 207 92 221 68z m12737 -262 c42 -7 81
-17 85 -21 4 -4 -6 -5 -23 -1 -28 5 -81 10 -370 36 -88 8 -80 8 65 4 91 -2
200 -10 243 -18z m6147 -20 c0 -2 -7 -9 -15 -16 -13 -11 -14 -10 -9 4 5 14 24
23 24 12z m-40 -22 c0 -5 -84 -44 -104 -49 -6 -1 -19 -5 -28 -9 -9 -4 -22 -9
-30 -10 -7 -2 -21 -6 -30 -10 -9 -4 -22 -9 -30 -10 -7 -2 -26 -6 -41 -11 -15
-4 -30 -5 -33 -3 -4 5 121 52 186 71 3 1 20 8 37 17 33 16 73 23 73 14z m2410
-18 c0 -7 -7 -19 -15 -26 -8 -7 -19 -29 -25 -49 -5 -21 -20 -47 -32 -58 -81
-74 -348 -222 -468 -258 -170 -51 -289 -76 -427 -89 -59 -5 -65 3 -28 32 29
23 32 32 10 32 -26 0 -16 16 23 34 20 10 89 41 152 67 63 27 124 53 135 58 11
5 49 21 85 34 150 58 307 119 335 132 17 8 62 28 100 46 74 34 135 58 148 59
4 0 7 -6 7 -14z m6103 -98 c12 -7 33 -13 47 -14 14 0 34 -4 45 -9 16 -7 15 -4
-5 15 -21 19 -22 22 -5 15 11 -4 26 -8 33 -8 40 -1 -40 -97 -82 -97 -35 0 -86
20 -83 33 1 7 -3 11 -9 10 -8 -2 -9 8 -4 32 4 20 4 35 -1 35 -5 0 -9 4 -9 10
0 10 33 0 73 -22z m-21408 -198 c-20 -32 -501 -192 -617 -204 -10 -1 -21 -5
-24 -9 -4 -4 -14 -7 -23 -7 -17 0 -11 4 68 48 23 12 46 20 51 17 6 -3 10 -2
10 3 0 11 43 26 98 33 4 1 15 5 25 11 10 5 26 11 35 13 9 2 76 20 147 41 72
20 153 42 180 49 28 8 51 14 53 14 2 1 0 -3 -3 -9z m18510 0 c-3 -5 -12 -10
-20 -10 -20 0 -25 -23 -9 -44 12 -17 10 -22 -12 -43 -14 -13 -37 -31 -50 -39
-13 -9 -21 -20 -18 -25 3 -5 2 -8 -3 -7 -11 4 -112 -81 -125 -105 -6 -12 -6
-22 1 -31 33 -40 81 -230 54 -213 -5 3 -8 -5 -9 -16 -1 -28 -56 -181 -67 -185
-4 -2 -5 -8 -1 -13 3 -5 0 -9 -5 -9 -6 0 -10 -3 -10 -7 1 -5 0 -11 -1 -15 -1
-5 -3 -11 -4 -15 -1 -5 -10 -26 -19 -47 -42 -97 -82 -316 -58 -316 7 0 10 -4
7 -8 -2 -4 11 -28 31 -52 85 -107 88 -112 90 -159 1 -25 11 -73 23 -106 12
-33 22 -72 22 -87 1 -16 4 -28 8 -28 5 0 6 -60 1 -120 -1 -8 -11 8 -22 35 -43
103 -41 100 -116 187 -36 41 -78 81 -128 121 -5 5 -78 59 -161 120 -169 126
-227 175 -265 227 -27 37 -29 41 -29 66 0 8 -4 12 -10 9 -6 -3 -7 1 -4 9 3 9
10 16 16 16 5 0 6 -4 3 -10 -3 -5 -2 -10 2 -10 5 0 20 -11 35 -24 14 -14 29
-22 32 -19 3 4 6 2 6 -3 0 -14 69 -49 78 -40 4 4 -4 16 -17 27 -13 10 -19 19
-15 19 5 0 4 4 -2 8 -14 9 -59 98 -68 135 -27 113 11 295 85 405 43 66 192
212 215 212 8 0 14 3 14 8 0 4 10 12 23 18 12 5 49 24 82 41 89 46 137 65 360
141 39 14 68 15 60 2z m-5 -55 c0 -5 -5 -3 -10 5 -5 8 -10 20 -10 25 0 6 5 3
10 -5 5 -8 10 -19 10 -25z m2920 -92 c0 -17 -52 -98 -71 -111 -11 -8 -18 -21
-15 -29 3 -8 2 -11 -4 -8 -5 3 -14 -5 -21 -17 -16 -29 -106 -119 -145 -144
-16 -10 -33 -24 -37 -31 -5 -8 -12 -11 -18 -8 -5 4 -9 2 -9 -2 0 -5 -17 -17
-37 -28 -21 -11 -40 -23 -43 -26 -11 -13 -139 -79 -154 -79 -9 0 -16 -4 -16
-10 0 -5 -11 -10 -24 -10 -14 0 -28 -5 -31 -10 -4 -6 -10 -8 -15 -5 -5 3 -11
1 -14 -4 -4 -5 -18 -8 -31 -5 -15 2 -25 0 -25 -7 0 -14 -178 -4 -197 11 -2 2
-7 4 -13 5 -5 1 -13 4 -17 5 -5 1 -11 2 -15 1 -4 0 -5 5 -2 13 6 14 -17 36
-41 40 -9 1 -20 7 -23 12 -13 17 -70 44 -95 44 -14 0 -29 5 -32 10 -3 6 3 10
15 10 22 0 96 36 115 56 19 20 113 84 123 84 6 0 12 3 14 8 2 4 17 15 35 24
30 15 31 15 27 0 -3 -10 0 -8 8 4 8 13 21 20 33 18 11 -2 23 2 27 9 6 9 11 8
18 -3 6 -10 10 -11 10 -2 0 13 32 17 43 5 10 -9 279 -14 273 -5 -2 4 10 6 29
4 19 -2 36 1 40 9 6 9 3 10 -11 5 -14 -5 -16 -4 -8 4 9 9 17 9 34 0 20 -11 22
-10 17 4 -6 14 -3 16 13 11 16 -5 19 -3 13 11 -5 12 -3 15 6 9 7 -4 16 -3 20
2 3 5 42 26 85 48 44 22 91 50 104 63 24 21 62 30 62 15z m-25580 -78 c0 -5
-107 -75 -115 -75 -2 0 -32 -13 -67 -29 -88 -41 -240 -101 -255 -101 -7 0 -13
4 -13 8 0 11 340 172 362 172 9 0 20 5 23 10 4 6 9 9 13 6 4 -2 16 0 27 5 26
10 25 10 25 4z m25000 -91 c-37 -8 -88 -9 -84 -2 3 4 26 7 52 7 26 -1 40 -3
32 -5z m-6515 -53 c-4 -3 -10 -6 -13 -7 -4 0 -14 -3 -22 -7 -8 -3 -28 -9 -44
-14 -17 -5 -32 -15 -34 -22 -3 -9 2 -11 17 -6 16 5 20 3 15 -9 -4 -11 -1 -16
10 -16 9 0 16 -7 16 -16 0 -13 6 -15 28 -10 15 3 43 9 62 12 33 5 32 4 -15
-20 -27 -14 -56 -25 -63 -25 -7 -1 -20 -6 -30 -11 -27 -16 -239 -99 -321 -126
-143 -48 -223 -41 -91 7 33 12 60 25 60 29 0 15 -165 9 -268 -10 -160 -30
-163 -30 -158 -21 6 10 161 74 172 71 4 -1 10 2 13 7 3 5 17 17 31 26 13 9 19
17 12 17 -26 0 -10 19 31 35 153 63 329 106 487 121 41 3 77 8 78 10 7 5 33
-9 27 -15z m-8844 -22 c5 -8 9 -17 9 -21 0 -5 7 -8 16 -8 12 0 10 -6 -10 -21
-23 -18 -25 -22 -10 -36 8 -9 12 -23 9 -32 -4 -9 -8 -22 -9 -29 -5 -27 -93
-136 -155 -194 -55 -49 -215 -158 -234 -158 -3 0 -25 -13 -49 -29 -24 -16 -61
-39 -83 -50 -54 -30 -79 -45 -85 -52 -3 -3 -20 -14 -37 -23 -18 -9 -33 -21
-33 -26 0 -6 -7 -10 -15 -10 -8 0 -15 -4 -15 -8 0 -8 -53 -42 -67 -44 -5 0
-24 -11 -43 -25 -137 -95 -360 -209 -387 -198 -10 5 -22 7 -26 6 -44 -9 345
403 516 547 97 82 266 231 327 288 115 108 196 146 303 141 45 -3 72 -9 78
-18z m-12587 -159 c116 -52 160 -143 255 -517 58 -227 42 -323 -63 -391 -36
-24 -51 -27 -121 -27 -69 0 -86 4 -126 27 -115 68 -200 210 -266 446 -36 132
-38 264 -5 338 61 134 194 185 326 124z m11219 -163 c-22 -23 -83 -96 -136
-162 -111 -141 -152 -185 -168 -185 -14 0 0 21 94 150 78 107 143 178 201 221
54 40 58 28 9 -24z m-8963 -53 c-42 -19 -331 -86 -338 -79 -3 2 4 7 14 11 10
3 29 10 41 14 56 23 249 67 298 68 13 1 7 -4 -15 -14z m23326 -12 c2 -36 -27
-112 -40 -105 -6 3 -6 1 1 -7 10 -11 9 -17 -4 -32 -11 -12 -12 -18 -4 -18 8 0
7 -5 -3 -16 -9 -8 -16 -23 -16 -31 0 -9 -14 -71 -32 -137 -23 -87 -34 -114
-39 -100 -5 11 -6 0 -3 -26 5 -45 5 -45 -9 -15 l-14 30 -7 -29 c-7 -27 -8 -28
-26 -11 -11 10 -20 24 -20 32 0 7 -4 13 -8 13 -16 0 -35 78 -29 119 19 146
247 445 253 333z m-13097 -254 c-34 -51 -66 -94 -70 -96 -4 -2 -5 -10 -2 -18
4 -12 13 -8 41 18 l35 33 -23 -35 c-60 -89 -221 -234 -260 -235 -8 0 -14 -6
-12 -13 1 -8 -2 -11 -7 -7 -6 3 -27 -1 -47 -10 -43 -18 -47 -18 -39 -5 3 6 2
10 -4 10 -5 0 -11 -3 -13 -7 -10 -24 -260 -111 -333 -117 -29 -2 -36 1 -41 19
-7 27 -40 30 -118 10 -32 -8 -61 -14 -63 -11 -6 6 69 47 89 49 10 1 18 5 18 9
0 4 9 8 19 8 11 0 26 6 33 13 7 7 20 16 28 19 26 11 172 118 258 188 6 6 12 7
12 3 0 -4 4 -3 8 2 18 25 66 52 217 120 138 62 197 93 203 108 2 4 12 7 23 7
10 0 19 5 19 11 0 5 4 8 8 5 5 -3 24 5 43 18 54 38 47 8 -22 -96z m-15014 67
c249 -113 348 -167 530 -288 155 -103 368 -273 379 -304 5 -13 4 -14 -9 -3 -8
7 -15 10 -15 7 0 -4 -32 7 -71 24 -84 36 -763 407 -767 420 -2 5 -9 9 -14 9
-6 0 -30 18 -52 39 -97 92 -115 108 -121 103 -3 -3 -5 0 -5 8 0 18 94 9 145
-15z m20015 -9 c14 -2 25 -5 25 -6 0 -1 11 -4 24 -6 56 -10 26 -14 -115 -15
-172 0 -196 -3 -359 -34 -66 -13 -121 -23 -123 -21 -9 10 256 81 328 89 39 4
181 -1 220 -7z m-6984 -63 c-35 -120 -54 -298 -61 -573 -7 -269 -17 -322 -67
-366 -18 -16 -59 -61 -91 -101 -57 -70 -201 -192 -213 -180 -4 3 14 30 40 58
57 63 111 160 121 214 4 22 6 123 6 224 -2 234 26 406 86 541 l15 35 11 -25
c5 -14 9 -38 8 -54 -4 -47 19 -25 41 39 27 82 87 205 99 205 6 0 8 -8 5 -17z
m14105 -80 c37 -81 87 -207 103 -261 21 -74 15 -196 -22 -397 -43 -237 -68
-399 -92 -620 -33 -296 -65 -417 -146 -562 -96 -173 -300 -395 -479 -522 -123
-87 -432 -270 -594 -353 -151 -76 -261 -120 -606 -241 -132 -47 -261 -93 -287
-103 -26 -10 -51 -14 -55 -10 -4 4 16 30 46 58 55 50 172 115 308 169 178 70
406 194 463 250 28 28 194 125 330 194 367 186 511 298 617 480 78 135 93 202
102 480 8 208 12 246 44 396 20 91 47 232 62 315 14 82 52 260 85 395 33 135
60 253 60 262 0 9 7 20 15 24 9 5 16 26 18 51 1 23 3 42 4 42 1 0 12 -21 24
-47z m853 -199 c3 -8 2 -12 -4 -9 -6 3 -10 10 -10 16 0 14 7 11 14 -7z m-489
-34 c28 -13 55 -28 60 -32 6 -4 39 -29 75 -55 78 -58 153 -149 175 -211 17
-53 20 -148 4 -189 -9 -25 -12 -26 -20 -10 -6 9 -7 22 -4 27 3 6 1 10 -6 10
-7 0 -9 3 -6 7 4 3 -1 15 -10 26 -10 11 -12 17 -5 13 16 -10 -33 83 -60 111
-12 13 -26 23 -32 23 -6 0 -4 -5 4 -10 13 -8 13 -13 2 -31 -12 -19 -12 -21 3
-16 11 5 14 3 8 -6 -9 -14 -13 -30 -17 -71 -1 -17 -8 -32 -14 -34 -7 -2 -10
-8 -7 -13 9 -13 -67 -91 -114 -117 l-41 -23 -1 23 c-1 13 -1 26 0 31 0 4 -3 7
-9 7 -5 0 -6 7 -3 17 5 12 3 14 -7 8 -10 -6 -12 -4 -7 7 3 9 -1 25 -9 37 -8
11 -12 21 -8 21 3 0 0 8 -7 17 -12 14 -12 15 -1 9 11 -7 12 -4 4 11 -6 10 -13
50 -17 89 -3 38 -8 76 -11 85 -6 22 -46 39 -66 28 -13 -7 -15 -2 -12 32 2 27
-1 39 -9 36 -7 -2 -10 -23 -9 -53 2 -36 0 -45 -7 -34 -9 12 -11 11 -11 -8 0
-20 -2 -21 -20 -10 -11 7 -16 14 -10 16 5 2 10 13 10 25 0 18 -2 20 -11 7 -9
-12 -10 -12 -5 3 3 10 6 25 6 33 0 9 5 12 10 9 14 -9 13 8 -2 23 -9 9 -9 15 0
24 9 9 7 15 -6 25 -22 19 4 6 40 -19 52 -36 64 -15 23 44 -28 42 -32 56 -10
38 8 -7 22 -10 30 -6 8 3 15 1 15 -4 0 -5 -8 -11 -17 -13 -16 -4 -16 -5 -1 -6
9 0 20 3 23 9 9 14 -14 52 -27 44 -7 -5 -8 -2 -4 5 6 9 21 10 48 6 27 -5 38
-4 34 3 -9 15 13 9 69 -18z m-15825 -68 c-64 -31 -194 -111 -290 -178 -171
-118 -212 -145 -199 -130 4 4 65 49 135 101 144 105 299 200 389 239 102 43
86 29 -35 -32z m1950 -472 c0 -16 -163 -153 -344 -289 -170 -128 -279 -230
-329 -306 -14 -22 -38 -76 -52 -119 -24 -70 -27 -100 -32 -260 -5 -151 -10
-195 -30 -266 -70 -243 -247 -447 -688 -789 -267 -208 -401 -289 -527 -320
-55 -13 -138 -15 -138 -2 0 4 33 20 74 35 81 30 138 76 84 67 -5 0 -8 4 -8 10
0 5 -5 7 -10 4 -6 -4 -7 -11 -4 -17 4 -7 2 -8 -4 -4 -6 4 -9 13 -5 21 3 8 0
15 -5 15 -7 0 -9 14 -5 38 6 41 101 167 134 177 10 4 19 10 19 14 0 11 71 57
159 103 118 61 263 161 324 221 118 118 158 202 302 627 120 356 169 466 250
563 79 96 235 216 235 182 0 -3 -16 -27 -36 -55 -20 -27 -37 -55 -38 -62 -1
-7 -5 -18 -9 -25 -13 -20 95 39 188 104 330 231 466 323 475 323 6 0 10 5 10
10 0 6 2 10 5 10 3 0 5 -4 5 -10z m-6095 -356 c-38 -14 -142 -51 -230 -83
-209 -77 -213 -77 -125 -35 41 20 147 61 235 90 162 54 248 74 120 28z m20237
-96 c-7 -7 -12 -8 -12 -2 0 14 12 26 19 19 2 -3 -1 -11 -7 -17z m-52 -90 c-46
-93 -132 -217 -182 -263 -42 -40 -170 -135 -181 -135 -3 0 -3 9 0 20 3 11 9
20 13 20 5 0 6 10 3 23 -4 17 -2 19 6 7 7 -11 10 -6 9 20 -1 19 4 36 10 38 7
2 12 10 12 18 0 8 6 14 13 14 8 0 7 4 -3 10 -13 8 -12 10 3 10 9 0 16 3 15 8
-5 12 30 50 132 147 72 68 174 147 178 136 2 -5 -11 -38 -28 -73z m-20650 12
c-8 -5 -19 -10 -25 -10 -5 0 -3 5 5 10 8 5 20 10 25 10 6 0 3 -5 -5 -10z
m-2840 -145 c0 -2 -10 -9 -22 -15 -22 -11 -22 -10 -4 4 21 17 26 19 26 11z
m6361 -97 c-28 -35 -112 -144 -186 -243 -326 -434 -351 -462 -500 -560 -99
-65 -178 -130 -259 -212 -29 -29 -56 -53 -60 -53 -8 0 -3 93 7 135 2 11 8 42
11 68 4 27 9 57 11 67 2 9 6 33 9 51 6 34 8 43 25 114 13 50 13 58 2 51 -5 -4
-7 3 -4 15 4 16 8 17 14 7 7 -10 9 -8 10 7 1 11 3 27 3 35 4 38 72 166 87 162
6 -2 9 4 6 12 -4 9 6 24 23 38 17 13 30 28 30 33 1 30 231 249 282 268 25 9
44 -21 47 -72 1 -10 10 -12 36 -7 19 4 35 5 35 3 0 -3 -10 -29 -23 -58 -21
-51 -31 -167 -14 -162 4 2 31 20 60 41 29 22 63 43 76 47 14 4 68 49 120 99
120 114 189 176 197 176 3 0 -17 -28 -45 -62z m-1672 -30 c26 -41 12 -205 -30
-373 -58 -226 -114 -329 -256 -470 -76 -75 -106 -98 -134 -100 -22 -2 -23 2
-4 35 19 32 19 79 0 123 -8 19 -11 37 -8 41 4 3 2 6 -4 6 -6 0 -14 12 -18 27
-3 15 -10 30 -14 33 -5 3 -18 31 -30 63 -24 65 -28 160 -9 204 44 100 222 311
303 358 22 13 65 31 95 39 30 9 62 21 70 26 21 14 23 13 39 -12z m-2389 -222
c0 -2 -46 -29 -102 -61 -225 -126 -369 -238 -591 -459 -83 -83 -135 -131 -117
-106 51 67 254 273 340 345 105 88 227 167 353 231 107 53 117 58 117 50z
m1714 -56 c-5 -5 -82 -46 -169 -91 -193 -98 -434 -227 -530 -284 -38 -22 -77
-44 -85 -47 -8 -3 -51 -31 -94 -63 -183 -131 -245 -158 -403 -176 -92 -10
-268 -7 -280 5 -9 8 32 22 151 50 93 22 149 45 375 155 256 124 417 197 841
377 208 89 209 89 194 74z m679 -524 c-20 -35 -163 -182 -236 -244 -284 -239
-590 -356 -927 -356 -219 1 -327 33 -605 179 -233 122 -401 169 -592 163 -51
-1 -95 0 -98 3 -11 12 122 42 206 47 100 5 253 -17 357 -52 37 -13 148 -64
247 -115 110 -55 215 -101 270 -117 208 -60 462 -36 655 61 44 22 230 142 240
154 3 3 23 20 45 37 22 17 69 53 105 80 90 69 99 74 66 30 -15 -20 -26 -40
-23 -42 11 -12 138 61 212 120 87 71 90 73 78 52z m13880 -58 c97 -49 204
-207 200 -295 -1 -42 -50 -146 -64 -137 -4 2 -10 -4 -14 -15 -12 -38 -125
-130 -208 -170 -112 -54 -237 -67 -237 -26 0 7 -4 15 -8 17 -9 3 -60 130 -66
165 -6 27 34 121 86 207 24 39 50 85 58 101 8 17 19 33 25 37 5 4 6 8 1 8 -5
0 -1 10 10 22 15 19 16 20 2 9 -15 -11 -18 -11 -18 0 0 28 13 59 21 53 5 -3 9
-1 9 4 0 6 18 19 40 29 47 24 105 21 163 -9z m-11163 -32 c0 -2 -26 -13 -57
-24 -180 -64 -400 -103 -783 -137 -194 -18 -203 -18 -196 -6 7 11 146 37 276
51 181 21 446 61 585 89 140 29 175 34 175 27z m2027 -112 c-3 -3 -12 -4 -19
-1 -8 3 -5 6 6 6 11 1 17 -2 13 -5z m50 -10 c-3 -3 -12 -4 -19 -1 -8 3 -5 6 6
6 11 1 17 -2 13 -5z m16793 -88 c0 -5 -163 -76 -240 -105 l-55 -21 25 21 c58
50 270 132 270 105z m-12667 -85 c5 -1 5 -5 2 -11 -3 -5 -2 -10 3 -10 17 0 48
-79 97 -245 43 -147 48 -171 52 -295 6 -146 -6 -252 -52 -456 -52 -230 -105
-357 -97 -233 3 53 -4 89 -19 89 -13 0 -40 -26 -33 -33 3 -3 0 -8 -6 -12 -9
-6 -11 7 -6 51 15 126 9 193 -15 179 -12 -8 -41 -74 -64 -145 -10 -30 -30 -79
-44 -110 -34 -75 -39 -41 -11 87 11 54 25 161 31 238 18 252 40 468 59 570 10
55 21 136 25 180 5 44 9 89 10 100 1 11 3 30 4 42 1 18 6 21 29 18 15 -2 31
-4 35 -4z m-6907 -157 c25 -10 88 -66 179 -158 189 -191 286 -242 480 -253
194 -11 550 60 739 146 86 39 96 54 110 160 12 88 24 125 28 85 2 -32 3 -39 9
-49 3 -5 6 -26 8 -45 2 -19 6 -36 11 -38 4 -2 5 -12 2 -24 -3 -14 -1 -19 6
-14 6 3 14 -3 18 -16 20 -65 205 -185 374 -243 58 -20 130 -63 130 -77 0 -20
-148 -1 -295 37 -194 50 -281 54 -505 21 -430 -63 -595 -69 -748 -26 -167 46
-274 119 -473 321 -86 88 -162 159 -168 159 -6 0 -11 7 -11 15 0 20 56 20 106
-1z m-5849 -47 c10 -7 6 -17 -15 -42 -15 -19 -32 -34 -38 -34 -6 -1 -18 -8
-25 -18 -13 -15 -10 -16 29 -10 27 5 42 4 42 -3 0 -15 -31 -74 -42 -81 -5 -3
-9 -10 -8 -15 2 -19 -83 -135 -123 -167 -23 -19 -89 -58 -147 -88 -58 -29
-115 -61 -128 -73 -36 -32 -59 -29 -53 7 2 15 -37 6 -63 -14 -32 -25 -32 -20
-1 78 32 101 84 187 164 267 99 101 249 194 320 199 16 1 27 6 24 10 -6 10 48
-3 64 -16z m-6909 -27 c2 -6 9 -7 14 -4 6 4 8 2 4 -4 -13 -21 138 -121 173
-114 7 2 10 -1 6 -7 -3 -6 -13 -11 -21 -11 -8 0 -14 -4 -14 -10 0 -14 37 -31
54 -24 12 5 15 2 10 -10 -4 -9 -9 -15 -12 -12 -2 3 -14 -6 -25 -20 -10 -14
-25 -23 -33 -20 -7 3 -17 -2 -22 -10 -5 -9 -12 -16 -15 -15 -4 0 -33 -11 -64
-25 -58 -26 -124 -42 -198 -48 -22 -2 -40 -5 -40 -6 0 -2 -11 -4 -25 -5 -49
-4 -125 -18 -150 -27 -14 -5 -33 -11 -42 -13 -65 -13 -172 -88 -250 -174 -30
-34 -58 -61 -62 -61 -4 0 -5 4 -1 9 3 5 1 12 -5 16 -5 3 -10 -1 -10 -9 0 -9
-3 -16 -7 -16 -5 0 -30 -34 -58 -75 -27 -41 -53 -75 -57 -75 -10 0 0 65 18
115 8 22 17 49 19 60 11 45 102 224 143 280 43 57 127 145 141 145 3 0 17 10
31 21 14 11 19 17 11 13 -10 -5 -12 -3 -7 5 5 7 14 10 22 7 8 -3 14 0 15 7 0
9 2 8 6 -1 4 -9 15 -5 41 14 19 15 32 22 27 14 -5 -7 13 3 40 23 26 20 51 37
54 37 3 1 42 11 85 24 81 24 197 27 204 6z m24695 -100 c-18 -17 -37 -30 -42
-30 -6 0 -11 -4 -11 -9 0 -10 -72 -41 -96 -41 -25 0 -8 16 48 44 29 14 67 35
83 46 45 30 55 24 18 -10z m-13123 -15 c131 -16 667 -24 689 -11 5 3 82 6 172
6 223 1 262 -11 484 -153 117 -74 261 -152 335 -180 59 -23 38 -37 -45 -32
-80 6 -148 22 -215 52 -170 77 -378 135 -615 172 -71 12 -144 23 -161 26 -16
3 -152 14 -302 25 -149 11 -336 29 -414 40 -204 29 -328 35 -415 17 -75 -14
-84 -8 -31 19 89 46 239 52 518 19z m15700 -26 c0 -4 -7 -9 -15 -13 -8 -3 -15
-12 -15 -20 0 -26 -39 -39 -97 -32 -39 4 -52 3 -48 -5 5 -7 -11 -9 -55 -6 -87
7 -87 9 5 43 6 3 48 13 95 23 85 19 130 23 130 10z m-21955 -315 c-36 -28
-441 -225 -411 -200 38 32 197 119 316 172 100 45 128 53 95 28z m9250 -13
c28 -6 61 -13 75 -15 14 -3 36 -8 50 -11 14 -3 31 -7 38 -9 7 -1 17 -7 23 -13
7 -7 -80 -10 -288 -9 -289 1 -302 0 -423 -26 -121 -26 -242 -60 -325 -91 -150
-56 -453 -191 -492 -219 -57 -41 -101 -118 -109 -194 -11 -94 26 -158 129
-225 148 -96 365 -146 617 -142 242 3 272 17 55 26 -71 3 -159 11 -195 18 -63
11 -91 15 -118 18 -9 1 -10 6 -3 19 6 11 35 25 70 35 34 10 61 22 61 27 0 14
-27 12 -33 -2 -4 -9 -6 -8 -6 2 -1 10 -12 17 -32 18 -53 4 -229 76 -229 94 0
4 -9 8 -20 8 -11 0 -20 5 -20 10 0 6 -14 23 -31 38 -17 15 -34 43 -38 64 -15
65 42 126 204 221 159 93 384 165 603 193 126 16 475 26 532 14 40 -7 -1 -12
-270 -30 -189 -13 -307 -31 -423 -65 -144 -41 -286 -116 -209 -110 15 2 59 8
97 14 48 8 80 8 100 1 26 -8 23 -9 -20 -4 -35 3 -45 2 -35 -5 16 -11 122 -7
142 5 7 5 19 9 28 10 8 2 27 5 43 8 15 3 38 8 51 10 13 2 33 7 44 10 11 4 33
9 48 11 16 2 67 11 114 20 91 17 328 26 336 13 3 -5 10 -5 16 -2 16 10 -13
-39 -31 -53 -9 -6 -19 -9 -22 -7 -4 2 -12 -2 -18 -10 -9 -11 -6 -12 16 -9 l28
5 -32 -22 c-42 -28 -41 -34 2 -26 23 5 35 3 35 -4 0 -6 -4 -8 -10 -5 -5 3 -10
-1 -10 -10 0 -9 -4 -13 -10 -10 -9 5 -15 -16 -11 -38 1 -5 -4 -5 -10 -1 -9 5
-11 -3 -7 -32 5 -36 5 -37 -5 -11 -6 15 -15 27 -19 27 -5 0 -4 -10 3 -21 8
-17 8 -31 0 -61 -7 -21 -9 -44 -5 -51 6 -9 4 -9 -8 0 -12 11 -17 9 -26 -13
-16 -35 -15 -51 6 -63 13 -8 9 -10 -20 -7 -21 1 -38 -1 -38 -6 0 -4 9 -8 20
-8 33 0 23 -24 -37 -87 -32 -33 -69 -73 -83 -89 -13 -16 -39 -46 -57 -67 -18
-22 -33 -36 -33 -32 0 4 -15 -6 -34 -23 -35 -31 -141 -76 -156 -67 -5 3 -10 1
-12 -4 -1 -5 -34 -13 -73 -18 -104 -14 -176 -11 -540 24 -93 9 -226 17 -295
17 -110 1 -131 -2 -175 -22 -60 -28 -235 -142 -235 -154 0 -4 9 -3 20 4 11 7
20 16 20 21 0 4 5 5 10 2 6 -3 10 -1 10 4 0 6 7 11 15 11 8 0 15 4 15 8 0 12
143 78 199 92 54 14 165 7 311 -20 91 -17 224 -46 255 -55 6 -1 12 -2 15 -2 3
0 16 -6 30 -13 14 -8 28 -15 33 -16 4 -1 9 -3 12 -4 3 -1 10 -3 16 -4 6 0 16
-9 23 -18 7 -10 20 -18 29 -18 8 0 17 -4 19 -8 5 -14 200 -89 263 -102 79 -16
189 -14 299 5 49 9 91 14 93 11 7 -7 -90 -55 -124 -61 -15 -2 -39 -7 -53 -11
-43 -10 -233 -12 -290 -3 -30 5 -71 11 -90 14 -41 7 -76 13 -110 20 -14 3 -36
7 -50 10 -14 3 -36 7 -50 10 -31 7 -115 23 -155 29 -16 3 -61 8 -98 11 -38 3
-72 6 -75 6 -4 1 -22 1 -39 0 -40 -1 -45 -26 -5 -28 15 0 70 -9 122 -19 52 -9
105 -18 118 -18 12 -1 22 -5 22 -10 0 -5 3 -6 7 -3 3 4 12 2 19 -4 8 -6 21 -9
29 -5 9 3 14 2 11 -3 -3 -5 1 -12 10 -15 23 -9 36 -7 30 3 -4 5 3 7 14 4 22
-6 26 -19 8 -25 -6 -2 -9 -9 -5 -15 20 -32 274 -57 433 -42 163 15 268 45 474
134 129 56 134 58 154 62 11 2 24 7 30 12 8 6 71 26 71 22 0 0 23 6 50 15 58
17 251 30 292 19 28 -8 -3 -17 -169 -50 -14 -3 -48 -15 -75 -27 -26 -11 -54
-22 -62 -24 -7 -1 -18 -7 -24 -13 -6 -6 -19 -11 -29 -11 -9 0 -22 -9 -28 -21
-6 -11 -16 -19 -23 -16 -6 2 -24 -12 -40 -30 -16 -18 -33 -33 -39 -33 -11 0
-78 -52 -78 -61 0 -3 23 -3 50 1 28 4 50 3 50 -2 0 -4 12 -8 26 -8 14 0 23 -4
20 -9 -7 -11 45 -1 62 12 18 14 27 1 13 -17 -11 -13 1 -14 96 -10 59 3 130 10
156 15 26 5 67 9 90 9 46 0 111 13 352 70 220 53 230 54 580 55 171 0 336 4
368 9 45 7 57 6 57 -4 0 -7 -3 -10 -7 -7 -3 4 -12 2 -20 -4 -7 -6 -13 -8 -13
-4 0 4 -7 2 -15 -5 -8 -7 -15 -9 -15 -6 0 4 -8 2 -18 -3 -11 -6 -30 -12 -43
-15 -13 -3 -35 -8 -49 -11 -14 -3 -41 -8 -60 -10 -19 -3 -44 -8 -55 -10 -11
-2 -49 -7 -85 -10 -159 -13 -195 -17 -214 -25 -25 -10 -29 -10 126 -16 65 -2
121 -5 125 -6 5 0 15 1 23 5 8 3 44 8 80 11 36 2 110 19 165 36 525 163 706
193 1188 194 186 1 341 -2 343 -6 3 -5 -1 -9 -8 -9 -7 -1 -24 -3 -38 -6 -14
-2 -151 -6 -305 -9 -393 -7 -611 -38 -848 -121 -153 -53 -308 -138 -306 -167
0 -6 3 -5 6 2 2 6 13 12 24 12 10 0 19 5 19 10 0 6 3 9 8 8 4 -1 23 5 42 14
199 90 468 156 668 164 76 3 122 2 122 -5 0 -5 -12 -12 -27 -15 -118 -22 -144
-28 -141 -30 9 -7 592 14 650 23 36 6 124 25 195 42 176 44 344 49 571 20 157
-20 301 -45 332 -58 8 -3 18 -5 23 -5 4 1 7 -3 7 -9 0 -7 -18 -9 -57 -4 -260
29 -601 21 -803 -20 -161 -32 -346 -54 -470 -55 -52 -1 -99 0 -105 1 -5 1 -12
1 -15 1 -3 0 -37 -3 -75 -7 -39 -3 -110 -15 -160 -26 -77 -17 -115 -27 -203
-55 -7 -2 -14 -4 -17 -4 -16 -3 -81 -34 -86 -42 -5 -8 -24 -14 -54 -18 -5 0
-2 -7 8 -15 16 -11 25 -11 58 0 21 8 39 11 39 8 0 -4 5 -2 12 5 7 7 25 12 41
12 16 0 26 4 22 10 -4 6 6 10 22 10 27 0 -43 -42 -264 -157 -29 -15 -53 -33
-53 -41 0 -7 6 -10 13 -7 6 4 1 -3 -12 -14 l-23 -21 26 0 c15 0 108 32 206 71
163 64 309 113 316 106 2 -2 -45 -29 -104 -61 -166 -92 -234 -133 -272 -165
l-35 -30 30 0 c49 -1 153 27 222 59 35 17 68 30 73 30 5 0 24 8 42 18 44 23
108 45 115 39 5 -5 -35 -31 -49 -32 -3 0 -10 -3 -14 -8 -26 -26 107 15 351
108 39 14 95 35 125 45 30 10 100 35 155 55 55 20 118 43 140 50 83 28 245 92
252 99 4 4 0 4 -10 0 -9 -3 -17 -2 -17 4 0 6 17 8 41 6 27 -4 39 -2 34 5 -3 6
1 11 10 11 9 0 13 -5 9 -11 -5 -8 -1 -8 14 0 13 7 71 11 144 10 143 -1 207
-17 83 -20 -44 -1 -89 -3 -100 -5 -50 -7 -80 -16 -104 -30 -26 -15 -25 -15 15
-10 118 16 417 2 499 -23 26 -8 20 -9 -35 -10 -172 -3 -330 -30 -385 -64 -16
-11 -21 -16 -10 -12 11 4 59 9 108 12 l87 6 -1 -29 c0 -24 -2 -26 -8 -10 -7
19 -8 19 -14 -3 -3 -13 -9 -21 -14 -19 -4 3 -16 -3 -25 -13 -17 -18 -17 -19 7
-25 13 -3 86 -2 162 4 76 5 142 6 147 1 5 -4 -4 -11 -20 -14 -98 -22 -263 -69
-293 -83 l-36 -17 128 -3 c70 -1 127 -7 127 -12 0 -8 -69 -36 -82 -32 -3 1
-12 -6 -19 -14 -17 -21 7 -37 33 -23 12 7 18 6 18 -2 0 -6 7 -9 15 -5 8 3 15
1 15 -4 0 -5 12 -9 28 -10 37 -1 105 -6 117 -10 6 -1 14 -2 19 -1 5 1 12 -2
15 -8 3 -5 20 -12 36 -15 25 -5 26 -5 10 4 -16 8 -12 9 15 4 75 -14 76 -19 12
-43 -34 -12 -64 -26 -67 -31 -9 -14 19 -12 34 2 10 11 12 10 9 -1 -2 -12 31
-14 206 -13 114 1 211 4 215 6 3 2 94 7 201 10 107 4 222 9 255 11 33 3 102 7
153 10 50 3 102 9 115 14 12 5 24 9 27 9 3 0 13 4 23 8 10 4 24 1 30 -5 9 -9
8 -11 -6 -5 -19 7 -57 -20 -57 -40 0 -7 -8 -12 -17 -13 -39 -3 -94 -22 -89
-31 2 -4 -8 -7 -22 -8 -15 0 -52 -4 -82 -7 -72 -7 -241 -17 -357 -20 -51 -1
-93 -5 -93 -9 0 -3 -15 -4 -32 -1 -18 4 -53 5 -78 4 -25 -2 -171 -4 -325 -6
-154 -2 -314 -6 -355 -9 -193 -15 -227 -18 -255 -22 -152 -21 -1086 -31 -1245
-13 -63 7 -149 24 -180 36 -24 9 -245 -4 -370 -22 -25 -4 -112 -10 -195 -15
-160 -9 -7116 -6 -7175 3 -19 2 -156 8 -305 12 -148 4 -301 9 -340 11 -38 3
-83 5 -98 4 -16 0 -26 3 -24 7 5 8 -187 8 -258 0 -22 -3 -78 -8 -125 -11 -47
-4 -105 -9 -130 -12 -291 -30 -1682 -31 -1810 -1 -21 5 -236 27 -263 27 -5 0
-6 4 -3 9 7 11 78 33 221 66 61 15 117 28 125 31 8 2 42 11 75 19 33 9 67 19
75 22 8 4 17 7 20 8 156 46 258 88 420 172 127 65 145 75 190 104 14 9 99 54
190 100 91 46 168 88 171 92 3 5 8 7 10 5 2 -1 20 8 39 20 19 13 27 21 17 18
-10 -3 -25 -6 -33 -6 -9 0 -12 -4 -9 -10 4 -6 -5 -10 -20 -10 -26 0 -169 -50
-216 -75 -14 -8 -29 -12 -33 -8 -3 3 -6 2 -6 -4 0 -6 -16 -13 -35 -15 -56 -6
-27 13 155 103 96 48 172 91 175 101 11 32 161 128 201 128 8 0 14 3 14 8 0 4
12 8 28 8 15 1 45 4 67 7 22 4 92 9 155 13 63 3 124 8 135 10 18 3 18 1 -4
-16 -12 -11 -27 -18 -31 -15 -5 3 -12 1 -15 -5 -16 -25 103 4 350 85 169 56
328 82 322 53 -1 -7 -11 -21 -22 -31 -19 -18 -18 -18 35 -15 30 1 58 7 62 13
5 6 8 3 8 -6 0 -22 -22 -39 -128 -99 -51 -28 -105 -63 -120 -76 -25 -22 -26
-23 -6 -24 11 0 24 3 27 6 7 7 132 52 317 114 175 57 420 116 420 100 0 -4
-26 -15 -57 -25 -235 -72 -464 -171 -742 -319 -87 -46 -139 -85 -64 -47 23 12
46 21 52 21 5 0 56 22 113 49 143 67 305 133 418 169 97 31 323 78 395 83 22
1 44 5 49 8 6 2 19 5 30 6 12 1 44 5 71 9 28 3 76 8 108 10 32 2 61 7 64 10
10 10 65 7 58 -3 -3 -5 0 -13 6 -17 8 -4 9 -3 5 4 -4 7 -1 12 8 12 8 0 23 3
33 7 16 6 17 5 3 -12 -14 -17 -13 -18 8 -13 20 6 21 4 10 -9 -12 -15 -5 -15
65 -9 55 5 77 4 72 -4 -3 -6 -11 -8 -16 -5 -5 4 -9 1 -9 -5 0 -6 -4 -9 -9 -6
-5 3 -12 -1 -15 -10 -3 -8 -10 -13 -15 -10 -5 3 -20 -3 -32 -14 l-24 -20 28
10 c16 5 43 10 60 10 25 0 5 -13 -93 -56 -69 -31 -132 -57 -140 -59 -25 -5
-130 -57 -137 -68 -8 -13 115 -2 187 17 70 18 184 62 460 176 220 91 395 153
460 163 32 6 31 4 -15 -17 -27 -13 -72 -33 -100 -45 -27 -11 -171 -71 -320
-134 -148 -62 -317 -132 -375 -155 -280 -110 -364 -142 -372 -142 -5 0 -14 -5
-21 -10 -7 -6 -21 -17 -32 -25 -18 -12 -13 -13 45 -9 36 2 128 18 205 34 184
39 183 39 216 55 15 8 36 17 46 18 10 2 32 10 48 17 17 7 35 14 41 15 32 7 87
41 91 56 3 9 26 26 51 37 26 11 112 50 192 87 129 60 315 138 440 185 59 22
77 7 40 -32 -15 -15 -32 -28 -39 -28 -6 0 -14 -7 -17 -15 -3 -8 -21 -20 -39
-27 -19 -6 -32 -15 -29 -19 4 -7 -54 -33 -68 -30 -5 0 -8 -4 -8 -10 0 -5 -4
-7 -10 -4 -5 3 -10 2 -10 -3 0 -10 -80 -49 -92 -45 -5 2 -8 -2 -8 -8 0 -5 -4
-7 -10 -4 -5 3 -10 2 -10 -4 0 -6 -10 -15 -21 -22 -17 -9 -20 -8 -13 3 9 15
-25 -9 -38 -27 -5 -6 -8 -5 -8 3 0 8 -8 5 -22 -8 -20 -18 -39 -25 -60 -21 -5
0 -8 -3 -8 -7 0 -9 -70 -37 -82 -34 -5 1 -8 -2 -8 -8 0 -5 -7 -6 -17 -3 -12 5
-14 3 -8 -7 6 -9 4 -12 -6 -8 -8 3 -26 0 -39 -7 -13 -7 -31 -10 -39 -7 -8 3
-12 1 -8 -5 4 -6 0 -14 -9 -17 -8 -3 -12 -2 -9 4 3 6 -1 7 -9 4 -9 -3 -13 -10
-10 -15 3 -5 -2 -6 -10 -3 -10 4 -16 1 -16 -7 0 -7 -2 -10 -6 -7 -3 3 -27 -3
-55 -13 -27 -10 -49 -16 -49 -13 0 4 -6 2 -12 -4 -7 -5 -31 -12 -53 -15 -22
-3 -74 -15 -115 -26 -41 -11 -120 -29 -175 -40 -55 -11 -138 -32 -185 -46 -47
-14 -96 -27 -109 -30 -45 -8 -34 -15 25 -15 32 1 106 5 164 11 58 6 115 11
127 13 12 1 25 5 29 9 4 4 14 7 23 7 10 -1 5 -7 -12 -16 -15 -8 -33 -14 -40
-12 -6 1 -28 -3 -47 -9 -19 -7 -53 -14 -75 -18 -22 -3 -51 -13 -65 -20 -25
-14 -25 -14 -2 -15 12 0 22 -4 22 -8 0 -7 34 -13 92 -15 9 -1 14 -5 11 -10 -3
-5 -11 -6 -18 -3 -7 2 -16 -2 -19 -10 -3 -8 1 -14 10 -14 8 0 12 -4 9 -10 -3
-5 0 -7 8 -4 8 3 45 -7 83 -21 38 -14 89 -28 114 -31 24 -3 48 -8 53 -11 4 -2
24 -7 45 -9 20 -3 40 -8 45 -13 8 -8 -6 -11 -61 -11 -27 -1 -30 -3 -20 -14 7
-8 15 -13 18 -11 3 2 48 -3 100 -10 101 -14 138 -18 320 -35 197 -19 531 -5
574 24 17 10 46 21 86 31 41 10 111 39 120 51 7 7 18 14 24 14 7 0 25 14 41
30 16 17 24 30 17 30 -6 0 -14 -5 -17 -10 -4 -6 -11 -7 -17 -4 -7 5 -9 2 -6
-7 4 -9 -2 -14 -16 -15 -11 -1 -32 -5 -46 -9 -20 -6 -14 4 32 51 31 33 90 95
130 139 64 69 116 121 219 215 15 14 49 43 75 65 65 54 134 125 134 138 0 12
50 88 65 99 7 5 7 8 0 8 -6 0 -6 3 0 8 6 4 19 20 29 36 18 28 18 29 0 22 -14
-4 -12 -1 6 15 14 11 18 17 10 13 -8 -5 -4 5 8 21 39 50 143 155 154 155 5 0
7 4 4 8 -3 5 6 19 19 30 14 12 25 20 25 17 0 -3 9 3 19 12 11 9 17 21 14 27
-4 6 2 4 12 -4 10 -8 16 -10 12 -3 -8 13 31 45 45 37 4 -3 8 2 8 10 0 10 6 13
15 10 8 -4 15 -1 15 5 0 6 8 11 18 11 9 0 13 -4 7 -8 -5 -4 -11 -12 -12 -19
-1 -6 -14 -24 -27 -38 -14 -15 -38 -48 -52 -74 -15 -25 -30 -48 -34 -51 -4 -3
-20 -30 -35 -60 -33 -65 -78 -131 -151 -217 -57 -67 -68 -91 -34 -73 11 6 20
8 20 5 0 -21 -33 -55 -123 -127 -249 -198 -348 -288 -317 -288 6 0 10 4 10 9
0 5 9 13 20 16 12 4 53 28 93 54 40 26 113 72 162 101 117 69 268 174 325 225
25 22 63 54 85 70 32 23 26 14 -30 -45 -38 -41 -100 -101 -137 -135 -71 -63
-106 -105 -89 -105 6 0 11 4 11 9 0 5 14 11 32 15 84 17 241 139 478 369 80
78 190 182 245 231 55 48 112 105 127 125 15 20 32 42 38 48 12 14 32 59 90
200 43 103 108 202 124 186 3 -4 6 -1 6 5 0 19 65 51 185 92 64 22 127 42 138
44 12 3 24 5 27 6 3 2 8 2 13 1 4 0 7 4 7 10 0 6 6 9 13 6 6 -2 28 2 47 9 19
7 64 20 100 28 462 101 564 117 725 111 66 -2 143 -9 170 -14z m-6695 -88 c19
-4 39 -5 44 -4 5 1 16 -1 25 -5 25 -11 35 -11 50 0 11 8 13 8 7 -1 -4 -8 -2
-13 6 -13 7 -1 2 -9 -11 -21 l-24 -20 59 5 c32 3 95 12 139 21 94 18 135 19
135 4 0 -5 -4 -7 -10 -4 -5 3 -10 2 -10 -4 0 -19 39 -22 151 -10 63 6 121 11
129 11 8 0 78 6 155 13 268 27 485 37 485 23 0 -5 7 -5 18 0 9 5 28 6 42 3 23
-6 21 -8 -24 -29 -86 -41 -210 -66 -526 -106 -25 -3 -58 -8 -75 -11 -147 -23
-283 -43 -295 -43 -8 0 -35 -3 -60 -7 -95 -14 -223 -8 -301 13 -42 12 -90 24
-105 27 -53 9 -69 13 -114 26 -25 7 -48 12 -52 11 -4 -1 -19 3 -32 8 -64 24
-303 30 -446 11 -309 -42 -608 -171 -845 -365 -27 -23 -52 -44 -55 -47 -13
-16 -125 -89 -137 -89 -7 0 -13 -4 -13 -9 0 -16 -38 -20 -44 -4 -4 9 -2 11 6
7 6 -4 8 -3 4 4 -3 6 -24 9 -46 7 -58 -6 -53 19 18 86 51 48 92 94 157 177 52
66 141 154 183 181 41 25 99 47 152 57 233 43 608 92 789 102 136 9 414 5 471
-5z m22700 -117 c96 -14 195 -29 220 -32 34 -5 40 -8 25 -14 -37 -13 -161 -11
-316 6 -186 20 -425 23 -534 6 -44 -7 -179 -33 -300 -57 -121 -24 -249 -49
-285 -55 -36 -7 -72 -16 -80 -22 -29 -18 222 1 405 31 264 44 346 53 485 52
130 0 171 -4 260 -26 8 -2 17 -4 19 -4 2 -1 -2 -8 -9 -16 -7 -8 -16 -12 -21
-9 -5 3 -9 1 -9 -4 0 -5 -11 -7 -25 -4 -14 2 -42 -5 -64 -16 -30 -16 -41 -18
-51 -9 -7 7 -10 7 -7 1 4 -6 -9 -10 -34 -9 -71 2 -200 -15 -354 -45 -257 -51
-427 -70 -800 -90 -110 -6 -285 -18 -389 -26 -105 -8 -275 -14 -379 -14 l-189
2 33 29 c18 16 40 29 49 29 14 0 70 51 70 63 0 2 -34 7 -76 10 -42 4 -101 13
-132 21 -32 8 -83 17 -116 21 -90 10 -110 15 -127 31 -8 8 -19 14 -23 14 -8 0
-36 26 -36 33 0 2 6 4 13 5 6 1 28 5 47 10 35 8 34 9 -25 17 -33 5 -62 9 -65
10 -3 1 -22 5 -43 10 -27 5 -35 10 -25 16 17 11 696 11 863 -1 72 -4 263 -14
426 -21 352 -14 456 -8 789 51 222 39 227 40 430 36 154 -3 249 -10 380 -30z
m-22974 -46 c27 -7 56 -13 64 -15 48 -10 135 -60 205 -118 44 -37 85 -71 91
-76 15 -12 57 -35 70 -37 5 -1 30 -11 55 -23 24 -12 57 -24 72 -27 16 -2 34
-6 40 -7 7 -1 18 -9 25 -17 12 -13 13 -13 6 0 -7 12 -5 13 8 3 8 -7 19 -9 23
-5 5 4 5 1 1 -5 -7 -12 5 -16 54 -16 36 0 140 12 149 17 5 3 26 8 47 11 22 3
45 8 52 10 29 10 7 -5 -50 -35 -108 -55 -188 -101 -193 -111 -4 -5 1 -6 9 -3
8 3 19 -3 26 -15 11 -22 60 -30 60 -10 0 5 3 8 8 5 4 -2 32 2 62 10 30 9 62
17 70 19 8 1 56 15 105 29 81 23 192 45 299 60 75 10 21 -12 -94 -39 -157 -37
-274 -74 -432 -135 -73 -29 -142 -55 -153 -60 -14 -5 -7 -8 25 -8 25 0 61 -1
80 -2 19 -1 76 7 125 19 282 65 305 69 305 54 0 -5 -39 -23 -88 -42 -48 -19
-91 -38 -97 -43 -5 -4 -15 -8 -22 -8 -7 0 -47 -20 -89 -45 -41 -25 -79 -45
-84 -45 -4 0 -13 -7 -20 -15 -7 -8 -16 -12 -21 -9 -5 3 -8 0 -7 -8 2 -7 -4
-12 -14 -10 -20 3 -33 -14 -17 -24 8 -4 9 -3 5 4 -4 7 -2 12 3 12 6 0 11 -7
11 -15 0 -18 13 -16 130 20 41 12 93 25 115 28 88 14 -273 -147 -413 -183 -48
-12 -112 -18 -197 -19 -149 -2 -240 -23 -413 -96 -62 -26 -116 -45 -118 -42
-8 7 141 81 243 120 100 39 175 55 265 58 76 3 91 13 47 32 -32 14 -32 15 -9
17 14 1 29 2 33 1 5 -1 6 3 2 9 -3 5 -17 10 -31 10 -14 0 -23 4 -20 9 4 5 -4
7 -16 4 -19 -4 -20 -3 -8 7 13 10 11 11 -7 7 -15 -3 -20 -1 -16 8 3 10 -2 12
-19 8 -16 -3 -19 -2 -9 5 10 7 -3 17 -50 41 -34 17 -72 31 -84 31 -12 0 -25 3
-29 7 -8 8 -13 10 -86 23 -76 14 -241 14 -325 0 -38 -7 -83 -14 -100 -17 -73
-12 -206 -57 -268 -91 -42 -23 -113 -78 -185 -145 -110 -101 -291 -247 -406
-327 -43 -29 -89 -63 -141 -103 -5 -4 -28 -21 -50 -37 -22 -17 -69 -56 -104
-88 -35 -31 -75 -67 -89 -79 -14 -13 -29 -23 -34 -23 -5 0 -6 -4 -3 -10 3 -5
-3 -10 -14 -10 -12 0 -21 -4 -21 -8 0 -12 -78 -50 -115 -57 -54 -10 -337 -34
-470 -39 -240 -11 -360 -16 -422 -20 -35 -1 -63 0 -63 4 0 8 48 20 93 22 15 1
27 5 27 8 0 4 15 6 33 6 54 0 197 14 292 30 98 15 230 74 370 166 76 48 146
84 334 168 63 28 129 62 147 75 18 14 36 25 40 25 17 0 96 94 120 142 33 65
50 150 63 319 19 227 51 313 160 419 58 56 189 144 243 163 35 12 25 -9 -20
-48 -59 -49 -167 -170 -188 -210 -38 -73 -57 -140 -85 -304 -16 -97 -37 -198
-46 -226 -24 -75 -71 -153 -125 -207 -26 -27 -48 -50 -48 -53 0 -3 23 9 52 27
129 79 214 211 258 395 13 59 28 100 33 96 6 -3 7 -1 3 6 -9 14 12 81 24 81 5
0 7 6 4 13 -2 7 13 40 34 73 39 60 89 109 165 161 23 15 50 36 60 46 10 10 22
15 27 12 6 -4 10 -2 10 4 0 6 10 15 21 22 17 9 20 8 14 -3 -4 -7 2 -3 15 10
12 13 29 21 37 18 9 -4 11 -2 7 6 -5 8 -2 9 10 5 9 -4 15 -3 12 2 -6 9 102 58
144 65 14 3 25 5 25 6 0 1 14 3 30 4 17 1 55 6 85 10 43 6 69 3 117 -12 59
-19 62 -19 53 -2 -24 45 -123 101 -205 116 -16 3 -32 10 -33 15 -3 6 -10 5
-20 -3 -12 -10 -14 -10 -8 0 7 12 -14 17 -56 13 -10 -1 -18 3 -18 10 0 7 3 9
7 6 3 -4 11 -3 17 2 6 5 31 12 56 16 25 4 46 8 48 10 9 9 245 4 288 -5z
m-7790 -63 c-8 -19 -11 -39 -8 -43 4 -4 1 -4 -5 0 -8 5 -13 1 -13 -10 0 -13
-3 -14 -14 -5 -11 9 -16 9 -23 -1 -10 -17 -69 -58 -83 -58 -5 0 -10 5 -10 11
0 5 -4 7 -10 4 -5 -3 -10 -2 -10 4 0 6 10 16 23 22 19 11 21 11 9 -3 -8 -10
-9 -19 -4 -22 10 -6 24 17 26 41 1 7 17 24 36 38 28 20 36 23 38 11 3 -12 6
-12 21 3 10 10 21 26 24 36 4 10 10 15 13 13 3 -3 -1 -22 -10 -41z m84 23 c0
-5 -6 -9 -12 -7 -7 1 -12 -3 -11 -9 1 -6 -13 -18 -30 -28 -18 -10 -24 -11 -15
-3 14 11 15 16 5 27 -9 10 -9 11 1 6 6 -4 12 -2 12 4 0 6 5 8 10 5 6 -3 10 -1
10 4 0 6 7 11 15 11 8 0 15 -4 15 -10z m7280 6 c0 -2 -7 -7 -16 -10 -8 -3 -12
-2 -9 4 6 10 25 14 25 6z m-6620 -76 c0 -5 -8 -10 -17 -10 -15 0 -16 2 -3 10
19 12 20 12 20 0z m6310 -50 c-8 -5 -22 -10 -30 -10 -13 0 -13 1 0 10 8 5 22
10 30 10 13 0 13 -1 0 -10z m-4266 -92 c-3 -13 -10 -28 -15 -34 -5 -6 -24 -40
-41 -75 -39 -79 -147 -221 -161 -212 -5 3 -7 1 -4 -5 8 -11 -47 -62 -66 -62
-7 1 -2 6 11 13 12 7 20 15 18 18 -3 2 9 23 27 46 38 48 41 53 111 163 30 47
62 94 71 105 9 11 22 30 28 43 5 12 14 22 19 22 5 0 6 -10 2 -22z m15581 -72
c23 -34 68 -107 100 -163 70 -122 124 -190 196 -245 95 -71 160 -95 434 -157
139 -32 280 -79 317 -106 l23 -17 -30 4 c-16 3 -93 19 -170 36 -77 17 -192 42
-256 56 -222 47 -357 121 -448 242 -24 33 -70 114 -102 181 -32 67 -77 152
-100 190 -49 79 -26 66 36 -21z m-15075 -318 c58 -28 107 -54 108 -59 2 -5 10
-9 17 -9 7 0 16 -7 19 -16 9 -22 -32 -12 -166 42 -191 77 -331 104 -387 75
-17 -10 -20 -9 -15 4 4 9 9 13 12 11 3 -3 10 1 16 9 6 9 37 19 71 23 84 11
194 -16 325 -80z m2035 -127 c-3 -5 -22 -15 -43 -22 -20 -6 -158 -55 -307
-109 -148 -53 -287 -100 -309 -103 l-38 -6 47 37 c27 20 48 35 49 33 1 -2 24
10 51 26 58 34 182 84 269 109 119 33 294 55 281 35z m5989 -43 c-3 -4 -9 -8
-15 -8 -5 0 -9 4 -9 8 0 5 7 9 15 9 8 0 12 -4 9 -9z m6231 -128 c-137 -18
-172 -23 -215 -30 -44 -8 -66 -5 -39 5 31 11 198 33 254 32 l60 0 -60 -7z
m940 -4 c40 -13 40 -13 -40 -14 -44 0 -122 -6 -174 -12 -107 -12 -510 -13
-530 -1 -7 4 88 11 211 15 123 4 248 10 278 14 92 13 213 12 255 -2z m1908
-27 c112 -56 223 -137 275 -198 84 -100 145 -277 141 -412 l-2 -68 -70 -15
c-38 -9 -76 -16 -83 -16 -8 0 -14 -3 -14 -7 0 -5 -25 -8 -55 -9 -31 -1 -53 1
-51 4 3 2 40 11 83 19 43 8 83 19 90 25 20 17 25 108 9 196 -28 161 -102 266
-281 400 -98 74 -135 106 -135 117 0 9 9 6 93 -36z m-4192 9 c252 -36 542 -29
759 18 17 4 22 2 15 -5 -18 -18 -248 -71 -345 -79 -122 -11 -226 -7 -425 18
-228 28 -235 29 -395 30 -147 2 -151 6 -30 29 85 16 263 12 421 -11z m3923
-83 c3 -8 1 -15 -4 -15 -6 0 -10 7 -10 15 0 8 2 15 4 15 2 0 6 -7 10 -15z
m-12794 -30 c0 -5 -43 -25 -60 -30 -3 0 -14 -6 -25 -12 -41 -22 -378 -164
-381 -160 -8 8 342 166 401 181 6 2 21 8 35 14 31 13 30 13 30 7z m12800 -122
c-11 -17 -11 -17 -6 0 3 10 7 40 8 65 l2 47 3 -47 c2 -26 -1 -56 -7 -65z
m-17837 82 c11 -5 17 -3 17 6 0 8 6 5 15 -7 8 -10 15 -14 15 -7 0 17 54 -3
177 -65 54 -27 118 -57 143 -67 25 -11 56 -26 70 -35 14 -9 77 -38 140 -65
129 -54 348 -156 550 -258 l135 -67 -55 5 -55 4 84 -28 c46 -16 88 -35 95 -42
8 -9 8 -10 -1 -5 -8 4 -13 2 -14 -6 0 -9 -2 -9 -5 -1 -3 7 -14 2 -30 -14 -13
-13 -28 -22 -33 -18 -5 3 -12 1 -16 -5 -3 -5 -16 -10 -29 -10 -13 0 -23 -6
-23 -14 0 -11 5 -12 18 -6 12 7 19 5 23 -6 3 -8 10 -13 15 -9 5 3 13 0 17 -6
4 -8 9 -7 15 2 7 11 9 11 9 1 0 -7 5 -10 10 -7 6 3 10 1 10 -4 0 -6 3 -10 8
-9 4 1 54 -4 112 -12 l105 -15 -70 -6 c-99 -9 -2451 -8 -2560 0 -49 5 -80 9
-67 9 13 1 20 6 17 12 -3 6 1 7 10 4 11 -4 14 -2 10 9 -7 17 4 20 175 42 64 8
245 17 410 20 162 3 315 8 340 10 177 16 209 22 230 40 8 8 35 17 60 20 25 4
59 9 75 11 17 3 37 5 46 6 9 1 14 8 12 16 -3 7 -11 11 -17 9 -6 -2 -23 2 -38
10 -16 7 -28 11 -28 7 0 -3 -16 4 -36 15 -40 24 -54 27 -194 42 -116 12 -290
-1 -405 -31 -101 -26 -117 -29 -240 -45 -16 -2 -30 -4 -30 -5 0 -1 -56 -3
-125 -6 l-125 -4 55 23 c31 12 92 45 135 73 182 117 292 156 484 174 94 9 463
6 479 -3 4 -3 39 -8 77 -12 39 -3 80 -8 92 -10 12 -3 25 0 29 7 4 7 3 8 -4 4
-7 -4 -12 -3 -12 2 0 12 -68 42 -310 137 -107 43 -208 83 -225 90 -37 16 -98
24 -193 24 -48 1 -72 5 -70 12 2 6 6 10 8 9 3 -1 19 4 35 11 17 6 39 13 50 15
46 7 81 15 95 20 8 3 39 8 69 9 29 2 56 6 59 9 7 8 152 0 175 -9z m29167 -26
c0 -5 4 -8 8 -5 12 7 184 -173 210 -221 13 -24 19 -43 13 -43 -9 0 -211 195
-261 253 l-23 27 26 0 c15 0 27 -5 27 -11z m-25185 -9 c-3 -5 -11 -10 -16 -10
-6 0 -7 5 -4 10 3 6 11 10 16 10 6 0 7 -4 4 -10z m-3551 -12 c-5 -8 -2 -9 10
-5 23 9 79 -20 69 -36 -5 -9 -3 -9 8 0 13 10 16 10 16 -2 0 -19 -21 -19 -40 0
-8 8 -18 11 -22 7 -4 -4 -5 0 -3 8 2 9 -5 15 -17 16 -33 2 -36 3 -30 14 3 6 8
10 11 10 3 0 2 -5 -2 -12z m3516 -3 c0 -14 -12 -19 -32 -16 -5 0 -8 -3 -8 -9
0 -5 -5 -10 -10 -10 -6 0 -29 -9 -53 -20 -61 -28 -126 -50 -150 -50 -19 0 -19
2 -7 14 20 20 137 77 161 79 10 1 19 5 19 10 0 5 6 7 13 4 8 -3 20 -1 28 4 21
13 39 11 39 -6z m-3315 -77 c3 -3 -15 -1 -40 5 -25 6 -45 16 -45 23 0 10 10 8
40 -5 22 -10 43 -20 45 -23z m15650 12 c-3 -5 -16 -10 -28 -9 -21 0 -21 1 -2
9 28 12 37 12 30 0z m-119 -29 c-8 -12 -46 -21 -46 -11 0 5 8 11 18 13 29 8
33 7 28 -2z m-66 -21 c-8 -5 -22 -9 -30 -9 -10 0 -8 3 5 9 27 12 43 12 25 0z
m-100 -25 c0 -8 -52 -26 -58 -20 -3 2 6 9 19 14 28 11 39 13 39 6z m6988 -2
c-10 -2 -26 -2 -35 0 -10 3 -2 5 17 5 19 0 27 -2 18 -5z m-138 -13 c-36 -4
-87 -8 -115 -7 l-50 0 45 7 c25 4 77 7 115 7 l70 0 -65 -7z m-6921 -14 c-2 -2
-17 -6 -34 -9 l-30 -6 30 13 c26 12 47 13 34 2z m6724 -3 c-7 -2 -19 -2 -25 0
-7 3 -2 5 12 5 14 0 19 -2 13 -5z m-13736 -37 c-4 -10 0 -14 14 -13 10 1 19 4
19 7 0 8 107 -4 116 -13 12 -11 -66 -74 -131 -107 -97 -49 -187 -63 -355 -56
-80 3 -154 8 -165 10 -11 2 -77 7 -147 11 -71 4 -128 11 -128 16 0 5 3 9 8 10
25 3 55 8 122 22 81 18 104 22 195 37 33 5 72 12 86 15 14 3 39 6 55 8 17 2
35 6 40 10 6 3 30 8 52 9 23 2 42 5 42 8 0 3 18 6 40 8 22 1 51 7 66 12 18 7
23 7 18 -1 -3 -6 7 -4 22 5 36 19 37 19 31 2z m-924 -33 c-7 -2 -19 -2 -25 0
-7 3 -2 5 12 5 14 0 19 -2 13 -5z m15997 -268 c0 -2 -22 -16 -50 -30 -27 -14
-50 -23 -50 -20 0 2 21 16 48 29 53 28 52 28 52 21z m-130 -70 c0 -2 -10 -9
-22 -15 -22 -11 -22 -10 -4 4 21 17 26 19 26 11z m-50 -30 c0 -6 -117 -65
-127 -65 -4 1 21 16 57 35 72 38 70 37 70 30z m-4987 -82 c-7 -2 -21 -2 -30 0
-10 3 -4 5 12 5 17 0 24 -2 18 -5z m65 0 c-10 -2 -26 -2 -35 0 -10 3 -2 5 17
5 19 0 27 -2 18 -5z m129 -9 c-3 -3 -12 -4 -19 -1 -8 3 -5 6 6 6 11 1 17 -2
13 -5z m4603 -4 c-8 -5 -19 -10 -25 -10 -5 0 -3 5 5 10 8 5 20 10 25 10 6 0 3
-5 -5 -10z"/>
<path d="M18880 12983 c-437 -74 -686 -127 -860 -185 -87 -28 -190 -73 -190
-82 0 -2 75 16 168 40 92 25 282 69 422 99 453 97 640 144 570 143 -14 0 -63
-7 -110 -15z"/>
<path d="M16962 12213 c-110 -84 -293 -272 -478 -493 -251 -301 -436 -532
-430 -537 11 -11 208 200 441 472 272 319 382 443 469 533 33 34 58 62 54 62
-3 0 -28 -17 -56 -37z"/>
<path d="M16355 11359 c-205 -228 -255 -289 -176 -214 161 152 392 420 359
415 -2 -1 -84 -91 -183 -201z"/>
<path d="M15288 10492 c-152 -165 -438 -491 -438 -500 0 -22 418 432 540 586
75 94 28 54 -102 -86z"/>
<path d="M4720 13030 c-8 -5 -10 -10 -5 -10 6 0 17 5 25 10 8 5 11 10 5 10 -5
0 -17 -5 -25 -10z"/>
<path d="M30398 6158 c-3 -7 -4 -25 -3 -40 1 -19 -2 -25 -12 -21 -9 4 -11 8
-4 12 6 4 7 12 1 21 -12 18 -11 19 -14 -97 -2 -51 1 -90 6 -87 4 3 8 15 8 26
0 26 28 136 41 160 7 13 5 16 -6 12 -11 -5 -13 -2 -9 10 3 9 4 16 1 16 -3 0
-7 -6 -9 -12z"/>
<path d="M30407 5972 c8 -5 9 -13 3 -22 -6 -8 -10 -19 -9 -25 0 -5 6 1 13 15
15 26 12 40 -7 40 -9 0 -9 -2 0 -8z"/>
<path d="M30370 5930 c-9 -6 -11 -10 -3 -10 7 0 10 -7 7 -15 -4 -8 -1 -15 5
-15 6 0 11 -9 11 -20 0 -11 4 -20 9 -20 4 0 6 11 3 25 -2 14 -8 25 -13 25 -4
0 -6 9 -4 20 4 23 5 23 -15 10z"/>
<path d="M2790 5676 c0 -2 8 -10 18 -17 15 -13 16 -12 3 4 -13 16 -21 21 -21
13z"/>
<path d="M30086 5281 c-3 -5 1 -14 8 -20 12 -10 13 -8 9 8 -6 23 -9 25 -17 12z"/>
<path d="M30150 5226 c0 -2 8 -10 18 -17 15 -13 16 -12 3 4 -13 16 -21 21 -21
13z"/>
<path d="M7358 2153 c7 -3 16 -2 19 1 4 3 -2 6 -13 5 -11 0 -14 -3 -6 -6z"/>
<path d="M10975 980 c3 -5 11 -10 16 -10 6 0 7 5 4 10 -3 6 -11 10 -16 10 -6
0 -7 -4 -4 -10z"/>
<path d="M13712 889 c-34 -27 -62 -52 -62 -55 0 -7 118 74 125 87 16 26 -6 15
-63 -32z"/>
<path d="M14195 845 c-79 -23 -95 -29 -95 -35 0 -4 -18 -12 -40 -19 -22 -7
-39 -15 -36 -19 2 -4 -14 -16 -36 -27 -21 -10 -52 -33 -68 -51 -15 -18 -30
-30 -33 -28 -2 3 -23 -11 -47 -31 -23 -19 -45 -35 -50 -35 -4 0 -11 -8 -14
-17 -6 -15 -5 -15 11 -1 10 8 26 18 36 21 9 4 17 11 17 17 0 6 5 8 12 4 7 -4
8 -3 4 4 -4 7 -1 12 8 12 9 0 16 5 16 11 0 5 4 8 8 5 5 -3 18 4 30 14 12 11
26 20 32 20 5 0 10 5 10 10 0 6 9 10 19 10 10 0 22 7 25 16 3 8 10 13 15 10 5
-4 11 -3 13 1 6 14 135 72 193 88 32 8 60 17 63 20 6 5 -75 6 -93 0z"/>
<path d="M13898 833 c-10 -2 -18 -9 -18 -14 0 -5 -6 -9 -13 -9 -21 0 -285
-185 -327 -229 -9 -9 -25 -21 -35 -27 -11 -7 -19 -19 -19 -28 2 -14 -1 -14
-13 -5 -11 10 -14 10 -11 -2 2 -8 -2 -13 -9 -12 -7 2 -10 -4 -7 -12 5 -12 10
-12 27 -3 19 9 208 148 243 176 5 5 21 15 34 22 12 7 37 26 55 44 17 17 42 37
56 44 18 10 72 67 57 61 -2 -1 -11 -3 -20 -6z"/>
<path d="M8679 813 c-13 -16 -12 -17 4 -4 16 13 21 21 13 21 -2 0 -10 -8 -17
-17z"/>
<path d="M11340 770 c0 -5 7 -7 15 -4 8 4 15 8 15 10 0 2 -7 4 -15 4 -8 0 -15
-4 -15 -10z"/>
<path d="M19115 527 c-11 -6 -54 -24 -95 -38 -111 -40 -161 -59 -195 -74 -16
-7 -61 -25 -100 -40 -38 -15 -76 -31 -82 -37 -7 -6 -13 -8 -13 -5 0 3 -36 -12
-81 -34 -45 -22 -98 -44 -118 -49 -29 -8 -22 -9 36 -5 66 5 126 22 210 60 17
8 33 15 36 15 3 0 34 13 69 29 35 16 88 39 118 51 71 28 228 110 242 127 13
16 0 16 -27 0z"/>
<path d="M17960 490 c20 -13 43 -13 35 0 -3 6 -16 10 -28 10 -18 0 -19 -2 -7
-10z"/>
<path d="M10777 309 c7 -7 15 -10 18 -7 3 3 -2 9 -12 12 -14 6 -15 5 -6 -5z"/>
<path d="M9535 247 c-33 -5 -71 -14 -85 -20 -14 -6 -33 -9 -44 -8 -12 2 -16
-1 -11 -9 5 -9 1 -10 -16 -6 -24 6 -24 6 -2 -5 17 -9 73 -8 235 4 214 17 407
29 485 31 47 1 68 13 26 14 -245 7 -541 7 -588 -1z"/>
<path d="M10188 243 c7 -3 16 -2 19 1 4 3 -2 6 -13 5 -11 0 -14 -3 -6 -6z"/>
<path d="M8243 1548 c-58 -20 -253 -113 -263 -126 -3 -4 -21 -15 -42 -26 -41
-21 -105 -82 -95 -92 4 -4 13 -2 21 5 8 6 26 10 41 7 18 -3 25 -1 22 7 -3 8 9
12 39 10 24 0 44 3 44 8 0 5 3 8 8 7 16 -3 102 25 102 34 0 5 4 7 9 4 5 -3 25
1 45 9 20 8 36 12 36 9 0 -4 6 -1 13 5 8 6 24 13 38 15 13 3 25 5 27 7 3 2 12
5 57 14 22 4 44 10 50 13 10 6 23 7 143 12 39 2 72 5 72 6 0 11 -144 73 -190
83 -72 14 -108 12 -177 -11z"/>
<path d="M8354 1364 c-104 -15 -233 -46 -303 -74 -59 -23 -142 -61 -156 -72
-29 -22 -68 -59 -56 -52 9 5 12 3 7 -4 -15 -24 5 -32 32 -14 52 35 169 81 293
112 232 60 332 77 477 79 35 1 61 5 58 10 -16 26 -217 34 -352 15z"/>
<path d="M7820 1141 c0 -5 5 -13 10 -16 6 -3 10 -2 10 4 0 5 -4 13 -10 16 -5
3 -10 2 -10 -4z"/>
<path d="M7800 1120 c0 -5 5 -10 11 -10 5 0 7 5 4 10 -3 6 -8 10 -11 10 -2 0
-4 -4 -4 -10z"/>
<path d="M681 1809 c-13 -11 -22 -21 -20 -24 3 -2 18 7 34 20 17 13 26 24 20
24 -5 0 -21 -9 -34 -20z"/>
<path d="M4325 149 c-11 -17 0 -20 21 -4 17 13 17 14 2 15 -9 0 -20 -5 -23
-11z"/>
<path d="M38207 3134 c-1 -1 -28 -4 -60 -8 -75 -8 -224 -45 -308 -77 -25 -10
-60 -16 -106 -18 -34 -2 -23 -24 17 -37 l35 -12 -37 -1 c-20 -1 -45 -4 -55 -7
-13 -4 -14 -3 -5 4 9 6 -10 9 -57 8 -38 0 -67 -4 -65 -8 3 -4 12 -8 19 -8 22
0 105 -29 160 -57 62 -30 100 -66 128 -118 28 -52 29 -179 3 -365 -21 -150
-18 -278 10 -420 30 -151 36 -196 35 -267 -1 -101 -35 -211 -114 -368 -76
-153 -123 -255 -162 -355 -62 -161 -131 -278 -246 -421 -238 -293 -438 -516
-513 -570 l-39 -29 776 0 777 0 0 822 0 822 -57 -55 c-32 -30 -83 -77 -113
-104 -74 -65 -263 -248 -328 -318 -29 -31 -59 -57 -65 -57 -7 0 -6 4 3 10 8 5
12 10 7 10 -11 0 20 56 72 130 57 80 276 307 394 407 l87 74 0 694 c0 798 15
708 -115 703 -42 -2 -77 -4 -78 -4z"/>
<path d="M37520 2990 c20 -13 33 -13 25 0 -3 6 -14 10 -23 10 -15 0 -15 -2 -2
-10z"/>
<path d="M205 899 l-200 -67 -3 -36 c-2 -20 1 -36 7 -36 17 0 240 89 306 122
70 36 120 74 102 80 -7 2 -102 -26 -212 -63z"/>
<path d="M445 770 c-4 -6 -10 -8 -14 -6 -4 3 -55 -10 -112 -29 -57 -18 -141
-43 -186 -55 -139 -35 -133 -29 -133 -133 l0 -89 28 6 c38 9 168 74 222 110
94 65 200 156 200 173 0 7 5 13 10 13 6 0 10 5 10 10 0 13 -17 13 -25 0z"/>
</g>
</svg>
